<?xml version="1.0" standalone="no"?>
<!DOCTYPE svg PUBLIC "-//W3C//DTD SVG 20010904//EN"
 "http://www.w3.org/TR/2001/REC-SVG-20010904/DTD/svg10.dtd">
<svg version="1.0" xmlns="http://www.w3.org/2000/svg"
 width="512.000000pt" height="512.000000pt" viewBox="0 0 512.000000 512.000000"
 preserveAspectRatio="xMidYMid meet">
<metadata>
Created by potrace 1.11, written by Peter Selinger 2001-2013
</metadata>
<g transform="translate(0.000000,512.000000) scale(0.100000,-0.100000)"
fill="#000000" stroke="none">
<path d="M2347 4884 c-2 -2 -39 -6 -83 -8 -99 -6 -105 -7 -244 -46 -63 -17
-133 -36 -155 -42 -22 -5 -58 -18 -80 -28 -22 -9 -57 -23 -78 -30 -22 -7 -51
-18 -65 -26 -15 -8 -31 -14 -35 -14 -26 0 -202 -94 -317 -168 -51 -34 -169
-119 -180 -132 -3 -3 -32 -27 -65 -54 -65 -54 -97 -85 -195 -196 -36 -40 -79
-87 -96 -104 -62 -63 -204 -266 -274 -390 -78 -139 -190 -379 -190 -406 0 -9
-15 -61 -34 -116 -75 -218 -87 -268 -92 -364 -11 -215 -1 -511 20 -625 9 -44
18 -96 21 -115 3 -19 12 -60 20 -90 8 -30 16 -66 19 -80 3 -14 8 -36 11 -50 3
-14 8 -38 11 -54 2 -16 7 -32 9 -36 2 -3 6 -17 8 -31 10 -51 52 -158 98 -249
48 -95 59 -112 157 -253 28 -42 52 -80 52 -84 0 -5 12 -22 28 -39 15 -17 74
-89 131 -160 57 -71 168 -193 247 -271 79 -77 144 -145 144 -150 0 -4 -35 -28
-79 -52 -43 -23 -91 -54 -107 -68 -16 -14 -45 -36 -64 -48 -49 -32 -136 -112
-129 -119 3 -3 21 8 40 25 59 53 230 173 319 223 83 48 260 163 270 176 9 11
127 80 166 96 22 9 51 25 66 35 14 11 53 32 85 48 32 16 79 50 105 75 51 49
58 53 58 34 0 -7 10 -24 21 -38 l20 -25 -6 40 -5 40 20 -24 c11 -13 20 -18 20
-12 0 6 -11 21 -25 33 -24 21 -34 48 -17 48 4 0 18 -7 30 -16 33 -23 38 -10 7
14 -15 12 -25 29 -23 39 2 13 8 9 25 -19 12 -20 30 -41 41 -47 18 -10 21 -7
27 18 7 31 -5 61 -36 95 -21 22 -22 27 -13 50 5 13 9 14 20 5 8 -6 14 -16 14
-22 0 -19 53 -102 58 -89 2 7 -1 19 -7 26 -6 7 -22 40 -35 71 l-23 58 44 61
c25 34 51 64 57 68 7 4 47 10 88 14 l75 6 43 -41 c62 -58 85 -57 30 2 -16 18
-30 35 -30 38 0 3 29 5 65 5 54 -1 132 11 253 39 12 3 32 7 45 9 79 14 98 20
108 32 27 32 -14 30 -157 -10 -50 -14 -113 -22 -294 -40 -59 -6 -69 -1 -130
53 -19 17 -58 42 -87 56 -53 25 -75 45 -51 45 7 0 19 10 27 21 12 20 11 21 -6
14 -57 -23 -76 -27 -82 -18 -7 11 -82 46 -131 61 -63 20 -200 34 -214 23 -7
-6 -16 -8 -19 -4 -4 3 -7 2 -7 -4 0 -6 33 -13 73 -17 39 -4 90 -11 112 -17 22
-6 47 -12 56 -14 8 -2 37 -13 63 -26 43 -20 47 -24 31 -35 -9 -7 -40 -18 -68
-24 -29 -6 -61 -13 -72 -16 -13 -3 -31 4 -50 21 -82 73 -145 103 -145 70 0 -8
6 -15 13 -15 23 0 129 -82 118 -93 -23 -23 -58 -9 -108 43 -36 38 -55 51 -67
47 -14 -6 -11 -12 21 -39 44 -38 63 -61 57 -67 -16 -17 -179 -3 -304 24 -14 3
-45 8 -70 11 -48 5 -110 22 -110 30 0 11 28 31 80 58 71 36 141 105 170 167
22 46 23 52 10 106 -8 32 -20 68 -27 79 -15 24 -99 64 -132 64 -36 0 -31 17
12 46 23 15 49 33 57 38 8 6 7 1 -4 -12 -24 -28 -3 -30 26 -2 12 11 31 20 42
20 12 0 41 19 66 41 58 53 153 114 260 168 82 41 132 74 175 114 11 11 36 31
55 45 19 14 55 47 80 72 50 51 211 273 214 295 1 8 17 33 35 55 18 23 30 44
27 47 -14 14 78 96 180 161 28 18 76 56 105 85 30 28 77 67 104 86 28 19 45
36 38 38 -7 3 -29 -7 -49 -21 -39 -26 -56 -27 -35 -2 19 22 -6 30 -35 11 -13
-9 -29 -13 -35 -10 -5 4 -42 -19 -83 -49 -40 -31 -78 -56 -85 -56 -19 0 -91
-39 -91 -50 0 -6 -5 -10 -11 -10 -5 0 -8 4 -5 9 3 5 0 11 -8 14 -15 6 -56 -34
-76 -73 -22 -44 -84 -134 -103 -152 -12 -10 -16 -24 -13 -36 4 -12 -8 -38 -36
-78 -23 -32 -46 -60 -50 -62 -4 -2 -8 -17 -8 -32 0 -16 -8 -37 -19 -47 -16
-15 -46 -50 -166 -192 -57 -67 -201 -187 -292 -243 -15 -10 -48 -33 -73 -52
-25 -19 -53 -35 -63 -35 -30 -1 -139 -66 -186 -109 -7 -7 -16 -10 -19 -7 -13
13 101 112 213 185 251 165 267 183 277 318 1 21 7 31 15 28 7 -3 15 -1 18 4
4 6 16 10 28 10 12 1 33 10 46 21 21 17 22 21 9 32 -19 15 -30 55 -17 62 5 3
18 1 29 -5 15 -8 20 -8 20 3 0 22 -51 64 -113 92 -59 27 -63 39 -21 55 14 6
21 15 19 23 -3 7 20 42 51 77 l56 65 -29 20 c-15 11 -63 54 -105 96 -55 54
-78 85 -78 102 0 13 -22 59 -48 103 -82 136 -128 245 -134 319 -4 49 -74 65
-163 38 -11 -4 -35 -5 -54 -4 -104 8 -145 73 -95 149 26 41 42 50 134 78 100
30 134 41 177 60 17 8 36 14 42 14 6 0 19 4 29 10 14 8 72 26 117 36 61 13 84
14 89 5 4 -6 21 -11 38 -11 33 0 146 -57 238 -121 67 -47 154 -129 200 -189
57 -73 81 -101 163 -184 42 -43 77 -81 77 -85 0 -3 35 -6 78 -6 42 -1 133 -4
202 -9 128 -9 157 -9 245 -1 58 6 83 29 143 135 57 101 68 125 93 194 12 36
25 63 28 61 3 -2 15 -21 25 -42 54 -106 124 -143 278 -149 140 -5 159 -9 210
-43 103 -70 125 -116 153 -315 2 -15 9 -34 14 -40 6 -7 17 -39 24 -72 8 -32
32 -92 53 -133 45 -87 49 -147 21 -272 -16 -71 -76 -189 -114 -227 -7 -7 -13
-18 -13 -23 0 -6 -15 -43 -34 -82 -34 -71 -70 -187 -60 -196 9 -9 21 15 33 63
17 71 68 186 82 186 13 0 56 -62 82 -120 69 -153 113 -320 133 -505 3 -33 9
-87 13 -120 6 -54 6 -197 0 -235 -1 -8 1 -37 5 -65 4 -27 9 -68 12 -90 10
-107 24 -198 42 -276 11 -47 18 -110 17 -140 -1 -30 0 -58 3 -63 6 -11 5 -83
-4 -226 -7 -114 -7 -102 -5 -120 1 -9 4 -10 10 -5 7 8 17 106 21 203 0 7 4 11
9 8 9 -6 78 65 131 135 47 62 145 184 189 235 20 23 51 60 69 83 35 44 162
269 210 374 32 70 103 249 106 269 1 7 4 18 8 23 3 6 9 28 12 50 6 40 12 74
21 130 31 194 24 856 -11 954 -2 8 -7 40 -11 70 -7 76 -85 317 -133 418 -22
44 -40 84 -40 87 0 3 -13 35 -30 71 -16 36 -30 68 -30 71 0 10 -127 196 -170
249 -23 28 -53 65 -68 84 -143 179 -327 370 -382 395 -11 5 -20 12 -20 17 0
18 -250 170 -410 249 -228 114 -279 133 -550 213 -97 29 -207 51 -305 62 -93
10 -452 25 -458 19z m162 -229 c-1 -39 -2 -39 -9 -10 -4 17 -8 41 -9 55 0 20
1 22 9 10 5 -8 9 -33 9 -55z m-165 -3 c3 -25 1 -40 -5 -37 -5 4 -9 16 -9 28 0
12 -4 29 -9 37 -6 8 -7 18 -4 23 10 16 22 -7 27 -51z m22 35 c1 -7 4 -24 7
-39 3 -16 1 -28 -4 -28 -5 0 -10 10 -10 23 -1 12 -3 32 -4 45 -2 23 7 22 11
-1z m34 -27 c4 -22 3 -40 -1 -40 -5 0 -9 6 -9 14 0 7 -3 29 -6 47 -4 19 -3 31
1 27 4 -4 11 -25 15 -48z m24 0 c4 -31 3 -39 -4 -25 -9 20 -14 82 -6 74 2 -2
7 -24 10 -49z m27 23 c0 -16 2 -36 4 -47 2 -10 0 -15 -4 -10 -13 14 -21 84
-10 84 5 0 9 -12 10 -27z m32 -20 c4 -18 2 -35 -3 -38 -6 -3 -10 2 -11 12 0
10 -2 31 -4 47 -5 38 11 20 18 -21z m51 32 c-4 -8 -8 -15 -10 -15 -2 0 -4 7
-4 15 0 8 4 15 10 15 5 0 7 -7 4 -15z m32 -30 c1 -25 -3 -45 -7 -45 -5 0 -9
12 -9 26 0 15 -4 23 -11 18 -6 -3 -9 -15 -6 -25 3 -11 1 -17 -4 -13 -14 9 -10
41 6 48 8 3 15 12 15 21 0 8 3 15 8 15 4 0 8 -20 8 -45z m30 0 c-1 -55 -16
-61 -16 -7 0 32 6 52 15 52 1 0 2 -20 1 -45z m34 -5 c0 -28 -5 -50 -10 -50 -7
0 -10 20 -9 50 2 28 6 50 11 50 4 0 8 -22 8 -50z m41 38 c1 -12 -1 -37 -6 -67
-1 -8 -6 -16 -11 -18 -5 -2 -9 19 -9 47 0 34 4 50 12 50 7 0 14 -6 14 -12z
m35 -21 c-5 -47 -16 -78 -26 -72 -5 3 -5 19 0 35 10 35 10 35 10 55 0 8 4 15
9 15 6 0 9 -15 7 -33z m36 -32 c-4 -21 -14 -41 -21 -43 -11 -4 -13 3 -8 28 4
18 7 44 7 58 0 24 2 25 15 11 12 -12 14 -24 7 -54z m-492 -7 c0 -21 -4 -38 -9
-38 -10 0 -21 80 -13 94 8 15 22 -19 22 -56z m25 33 c2 -13 7 -32 11 -43 4
-14 2 -19 -7 -16 -7 2 -14 24 -16 48 -4 45 4 52 12 11z m35 -7 c8 -22 9 -39 3
-45 -6 -6 -13 8 -20 36 -12 54 0 60 17 9z m465 -2 c-2 -21 -9 -49 -15 -63 -8
-19 -9 -13 -5 30 5 51 11 71 21 71 2 0 2 -17 -1 -38z m30 -27 c-3 -25 -11 -47
-17 -51 -10 -7 -2 91 10 111 10 17 14 -15 7 -60z m-622 -37 c-10 -19 -21 -5
-27 33 -9 58 6 73 19 19 7 -25 10 -48 8 -52z m28 65 c0 -16 2 -36 4 -45 2 -10
0 -18 -5 -18 -9 0 -30 77 -22 85 13 12 22 3 23 -22z m641 -4 c-6 -45 -24 -89
-33 -83 -6 3 -7 19 -3 37 4 18 8 41 10 52 1 11 3 22 3 23 1 2 7 2 14 -1 6 -2
11 -15 9 -28z m-713 -15 c10 -35 5 -68 -8 -60 -8 5 -15 96 -7 96 3 0 10 -16
15 -36z m747 9 c-2 -16 -5 -28 -6 -28 -1 0 -4 -11 -6 -24 -5 -28 -11 -37 -20
-28 -8 8 18 107 28 107 5 0 7 -12 4 -27z m25 -30 c-7 -50 -16 -72 -25 -62 -4
4 8 69 20 108 9 28 11 4 5 -46z m-810 35 c0 -7 3 -25 5 -40 3 -16 0 -28 -6
-28 -5 0 -10 10 -11 23 0 12 -2 30 -4 40 -2 9 1 17 6 17 5 0 9 -6 10 -12z
m849 -20 c-4 -18 -13 -44 -19 -58 l-12 -25 6 25 c2 14 5 40 5 58 0 21 5 32 14
32 11 0 12 -8 6 -32z m-907 -35 c3 -24 2 -43 -3 -43 -10 0 -31 81 -23 93 10
16 22 -7 26 -50z m27 50 c1 -5 3 -26 6 -48 4 -34 3 -37 -7 -20 -15 23 -19 75
-7 75 4 0 8 -3 8 -7z m905 -33 c-15 -43 -42 -93 -31 -57 3 11 9 31 12 45 9 44
13 52 23 52 6 0 4 -17 -4 -40z m20 -39 c-26 -51 -34 -35 -11 23 16 43 22 49
24 31 2 -13 -4 -37 -13 -54z m-988 15 c2 -20 1 -36 -5 -36 -11 0 -30 61 -24
78 7 22 23 -2 29 -42z m1043 35 c0 -11 -5 -23 -10 -26 -6 -4 -7 -11 -4 -17 4
-6 12 -1 20 13 7 13 10 27 8 31 -3 5 0 8 5 8 14 0 14 -7 -2 -52 -16 -45 -27
-58 -27 -32 -1 18 -1 18 -14 1 -22 -28 -26 -6 -9 46 16 48 33 62 33 28z
m-1076 -57 c3 -13 1 -24 -4 -24 -12 0 -31 70 -23 83 7 11 20 -18 27 -59z
m1131 44 c-5 -25 -34 -88 -40 -88 -3 0 7 35 30 98 7 20 14 14 10 -10z m-1167
-40 c6 -21 7 -38 3 -38 -8 0 -31 59 -31 80 0 24 17 -3 28 -42z m1202 46 c0
-27 -25 -94 -35 -94 -11 0 -11 7 -3 33 5 17 12 40 15 50 5 15 23 25 23 11z
m25 -44 c-31 -86 -45 -89 -24 -4 6 24 17 44 25 44 11 0 11 -7 -1 -40z m-1265
11 c0 -11 4 -22 10 -26 11 -7 2 -35 -12 -35 -6 0 -8 7 -5 15 4 8 2 17 -3 20
-13 8 -13 45 0 45 6 0 10 -9 10 -19z m1293 -36 c-8 -25 -19 -45 -24 -45 -12 0
-11 8 7 57 22 56 37 45 17 -12z m-1330 38 c3 -5 8 -24 12 -43 9 -44 -11 -29
-24 18 -9 28 0 45 12 25z m1369 -43 c-9 -27 -22 -50 -29 -50 -11 0 -11 6 0 33
15 35 17 42 17 57 0 6 6 10 14 10 12 0 12 -8 -2 -50z m-1393 9 c13 -37 14 -56
4 -45 -5 4 -8 11 -8 14 0 4 -3 12 -6 17 -13 22 -18 45 -10 45 5 0 14 -14 20
-31z m576 -63 c31 -91 32 -167 3 -234 -34 -83 -169 -249 -190 -236 -5 4 9 26
35 53 148 154 187 304 117 455 -10 22 -16 45 -13 49 9 15 21 -6 48 -87z m25
79 c0 -20 0 -20 11 -57 14 -50 21 -93 13 -85 -12 11 -52 145 -46 152 10 10 22
5 22 -10z m70 -12 c-1 -24 -2 -26 -11 -10 -5 9 -7 22 -4 27 10 17 15 11 15
-17z m36 -10 c-11 -11 -17 4 -9 23 7 18 8 18 11 1 2 -10 1 -21 -2 -24z m717
-5 c-20 -54 -37 -74 -27 -33 12 50 23 75 34 75 6 0 3 -18 -7 -42z m-1447 -12
c10 -27 10 -36 2 -34 -6 2 -17 21 -24 42 -10 27 -10 36 -2 34 6 -2 17 -21 24
-42z m514 -66 l0 -24 -17 24 c-30 43 -53 93 -47 102 9 15 64 -73 64 -102z m25
60 c29 -56 40 -131 30 -195 -8 -57 -74 -165 -151 -247 -35 -37 -71 -79 -80
-93 -9 -14 -20 -23 -24 -20 -15 9 2 44 37 77 67 63 96 93 121 128 14 19 32 40
39 46 26 22 40 79 37 149 -3 83 -4 86 -32 149 -25 56 -25 56 -12 56 5 0 21
-23 35 -50z m237 35 c0 -5 -5 -11 -11 -13 -6 -2 -11 4 -11 13 0 9 5 15 11 13
6 -2 11 -8 11 -13z m58 -5 c0 -13 -5 -18 -15 -14 -8 4 -15 12 -15 20 0 8 7 14
15 14 8 0 15 -9 15 -20z m641 -27 c-10 -26 -23 -49 -29 -51 -8 -2 -7 7 2 30 7
18 16 41 19 51 4 9 11 17 17 17 5 0 2 -21 -9 -47z m-1513 7 c8 -16 12 -38 10
-47 -3 -13 -9 -7 -21 21 -19 42 -21 56 -9 56 4 0 13 -13 20 -30z m466 -10 c24
-40 6 -32 -25 12 -14 20 -17 29 -8 26 7 -2 23 -20 33 -38z m466 28 c0 -19 -18
-43 -25 -36 -9 9 4 48 16 48 5 0 9 -6 9 -12z m615 -25 c-9 -21 -23 -45 -31
-53 -16 -16 -17 -18 16 65 5 14 14 25 20 25 6 0 4 -15 -5 -37z m-1131 2 c13
-19 13 -25 3 -25 -17 0 -37 20 -37 37 0 21 16 15 34 -12z m556 -4 c0 -16 -5
-42 -11 -58 l-11 -28 -9 24 c-6 16 -5 35 3 57 15 42 28 44 28 5z m599 -31
c-13 -22 -26 -40 -31 -40 -11 0 -10 17 1 24 5 3 12 18 16 33 7 29 28 49 33 33
2 -5 -7 -28 -19 -50z m-1609 47 c0 -1 4 -17 9 -35 12 -40 -3 -33 -17 8 -7 18
-7 30 -1 30 5 0 9 -1 9 -3z m380 0 c0 -1 4 -17 9 -35 5 -17 6 -32 1 -32 -4 0
-10 8 -13 18 -2 9 -8 25 -12 35 -4 10 -3 17 4 17 6 0 11 -1 11 -3z m-403 -29
c19 -39 23 -58 12 -58 -8 0 -39 58 -39 75 0 14 18 3 27 -17z m363 18 c0 -2 7
-20 15 -40 19 -44 7 -48 -17 -5 -20 35 -23 49 -8 49 6 0 10 -2 10 -4z m793
-17 c3 -12 -5 -50 -18 -86 -14 -39 -22 -83 -21 -113 1 -53 -12 -70 -30 -37
-11 20 1 101 25 160 6 16 11 44 11 63 0 38 24 48 33 13z m527 13 c0 -15 -30
-69 -45 -82 -20 -17 -19 -9 7 45 20 41 38 58 38 37z m-1705 -62 c7 -30 6 -33
-8 -22 -18 15 -30 58 -21 74 9 14 19 -5 29 -52z m357 21 c20 -35 24 -69 15
-131 -3 -19 -5 -40 -6 -45 -1 -13 -66 -82 -102 -111 -26 -19 -65 -82 -61 -96
1 -5 -2 -8 -8 -8 -13 0 -13 27 0 35 6 4 8 11 5 16 -4 5 19 35 51 67 95 96 111
128 106 213 -1 14 -13 43 -27 63 -21 31 -22 37 -9 34 10 -2 26 -18 36 -37z
m716 -33 c-44 -156 -51 -208 -27 -208 5 0 9 -4 9 -10 0 -19 -28 2 -40 30 -9
23 -9 34 4 58 9 17 16 41 16 54 1 13 9 41 20 63 11 22 19 50 20 63 0 12 4 22
9 22 6 0 0 -33 -11 -72z m47 31 c-3 -23 -14 -66 -24 -96 -10 -30 -17 -75 -16
-99 2 -38 0 -42 -12 -32 -17 14 -11 94 11 137 8 14 17 46 21 71 4 25 9 48 12
53 10 16 13 5 8 -34z m79 -86 c-14 -49 -23 -98 -21 -111 3 -17 1 -20 -8 -12
-18 15 -11 88 14 155 11 30 21 57 21 60 1 38 2 39 10 18 7 -17 2 -48 -16 -110z
m536 116 c0 -15 -44 -89 -53 -89 -5 0 -7 3 -5 8 2 4 12 26 22 50 17 39 36 56
36 31z m-1780 -29 c0 -10 5 -22 10 -25 12 -7 13 -35 2 -35 -8 0 -32 58 -32 79
0 7 5 9 10 6 6 -3 10 -15 10 -25z m353 -2 c26 -35 33 -101 14 -141 -9 -18 -45
-63 -81 -100 -36 -37 -69 -80 -72 -95 -10 -44 -12 -48 -13 -20 -1 43 17 80 60
121 44 41 89 126 89 167 0 14 -9 43 -21 64 -23 43 -7 46 24 4z m953 -37 c-1
-28 -13 -64 -30 -94 -15 -26 -29 -47 -31 -47 -3 0 5 33 30 120 9 30 14 63 11
73 -4 14 -2 16 9 7 9 -8 13 -28 11 -59z m38 -17 c-2 -18 -13 -53 -24 -79 -11
-26 -20 -55 -20 -66 0 -10 -4 -19 -9 -19 -21 0 -17 30 11 86 24 49 29 68 25
114 -4 51 -3 53 9 25 6 -16 10 -44 8 -61z m470 64 c-5 -8 -1 -9 10 -5 14 6 16
3 10 -16 -4 -12 -11 -23 -15 -25 -5 -2 -9 -8 -9 -14 0 -5 -7 -17 -16 -26 -15
-15 -16 -14 -10 6 8 23 -9 32 -17 10 -2 -7 -8 -10 -12 -6 -10 10 44 100 56 93
5 -4 6 -11 3 -17z m-1511 -26 c26 -52 15 -93 -41 -161 -53 -63 -81 -116 -84
-157 -3 -29 -18 -20 -18 11 0 33 14 66 42 95 58 60 73 101 72 192 0 60 7 65
29 20z m-328 1 c14 -49 15 -63 6 -63 -5 0 -16 20 -24 45 -13 36 -13 45 -2 45
7 0 16 -12 20 -27z m1878 -33 c-25 -46 -43 -63 -43 -40 0 17 54 99 62 94 4 -3
-4 -27 -19 -54z m-1906 6 c18 -53 3 -69 -18 -20 -21 47 -23 67 -7 62 6 -2 17
-21 25 -42z m303 18 c11 -29 2 -86 -10 -63 -13 24 -19 89 -9 89 5 0 14 -12 19
-26z m-50 -9 c0 -18 -4 -23 -15 -19 -25 10 -19 33 13 43 1 1 2 -10 2 -24z
m1312 -53 c-1 -26 -13 -85 -27 -130 -27 -84 -29 -152 -6 -160 14 -5 45 -62 34
-62 -18 1 -74 82 -75 108 -1 15 11 69 27 120 15 52 28 118 28 147 1 37 4 49
10 39 5 -9 9 -37 9 -62z m406 58 c11 -18 10 -25 -8 -49 -11 -16 -20 -34 -20
-40 0 -6 -4 -11 -10 -11 -14 0 -13 5 11 51 11 23 18 43 15 46 -2 3 -14 -13
-26 -36 -11 -23 -25 -41 -30 -41 -6 0 1 23 15 50 14 28 29 50 33 50 4 0 13 -9
20 -20z m-2010 -17 c19 -52 21 -62 13 -68 -5 -2 -11 3 -14 13 -4 9 -13 32 -21
50 -12 26 -12 32 -2 32 8 0 18 -12 24 -27z m2054 -11 c-13 -33 -46 -82 -55
-82 -12 0 1 35 26 74 22 34 42 39 29 8z m-2082 -14 c17 -44 20 -58 11 -58 -7
0 -41 69 -41 83 0 19 20 3 30 -25z m270 28 c0 -3 -4 -8 -10 -11 -5 -3 -10 -1
-10 4 0 6 5 11 10 11 6 0 10 -2 10 -4z m1450 0 c0 -2 -11 -6 -25 -8 -13 -3
-22 -1 -19 3 5 9 44 13 44 5z m-1757 -26 c3 -11 5 -21 4 -23 0 -1 5 -12 12
-24 6 -13 8 -23 4 -23 -7 0 -43 71 -43 85 0 14 18 2 23 -15z m261 -13 c-9 -25
-22 -21 -19 6 3 32 4 32 15 21 6 -6 8 -18 4 -27z m1536 23 c0 -13 -12 -17 -65
-24 l-40 -5 37 12 c20 7 40 15 44 20 11 10 24 9 24 -3z m329 -50 c-13 -22 -26
-40 -31 -40 -13 0 -10 10 20 56 33 53 42 40 11 -16z m-2126 -33 c4 -10 2 -17
-6 -17 -14 0 -49 85 -39 94 5 6 28 -33 45 -77z m1835 56 c-2 -10 -18 -21 -38
-26 -19 -4 -50 -12 -67 -17 -18 -4 -33 -4 -33 0 0 10 18 16 72 25 20 4 39 13
42 21 8 20 28 17 24 -3z m321 -34 c-13 -23 -30 -45 -38 -47 -14 -5 25 76 44
90 19 14 17 -2 -6 -43z m-2190 -44 c0 -13 -7 -7 -20 20 -24 52 -24 80 1 35 11
-19 19 -44 19 -55z m249 41 c-3 -24 -19 -71 -37 -105 -26 -50 -30 -68 -25
-101 7 -43 -7 -55 -26 -21 -17 33 -12 60 26 129 19 37 36 80 36 97 1 35 5 45
20 45 6 0 8 -17 6 -44z m1666 19 c-7 -18 -55 -42 -103 -51 -20 -4 -51 -13 -68
-21 -18 -7 -33 -11 -33 -9 0 13 71 45 113 50 35 5 52 14 63 32 17 25 37 24 28
-1z m300 -39 c-38 -59 -51 -48 -16 14 15 28 31 45 36 40 5 -5 -3 -28 -20 -54z
m-2254 4 c17 -52 6 -63 -14 -15 -18 42 -20 55 -8 55 5 0 15 -18 22 -40z m226
-24 c-24 -63 -37 -67 -29 -9 7 54 21 79 36 64 7 -7 4 -25 -7 -55z m1378 56 c3
-5 -3 -26 -13 -48 -10 -21 -22 -48 -27 -59 -7 -19 -8 -19 -11 3 -3 12 3 36 11
54 9 17 16 37 16 45 0 14 16 18 24 5z m96 1 c0 -6 -44 -158 -56 -193 -5 -13
-7 -13 -15 2 -6 11 -4 31 7 60 8 24 23 64 32 90 15 41 32 63 32 41z m274 -34
c-26 -29 -62 -46 -114 -54 -24 -4 -56 -13 -72 -21 -40 -20 -48 -17 -13 6 16
11 49 22 72 26 24 3 46 10 49 15 3 5 13 9 23 9 10 0 28 11 41 25 28 30 41 24
14 -6z m330 19 c-21 -36 -46 -68 -55 -68 -5 0 3 18 17 40 15 22 31 40 36 40 5
0 6 -6 2 -12z m-2330 -38 c18 -46 19 -50 8 -50 -4 0 -15 20 -24 45 -21 56 -6
60 16 5z m1672 14 c-10 -39 -47 -114 -57 -114 -12 0 -3 38 22 93 24 50 45 64
35 21z m384 11 c0 -33 -66 -86 -125 -101 -82 -22 -124 -37 -147 -54 -32 -24
-36 -15 -8 19 13 15 52 33 109 51 95 30 141 54 141 75 0 11 8 18 28 24 1 1 2
-6 2 -14z m287 -28 c-43 -62 -63 -60 -22 2 15 22 31 38 36 35 5 -3 -1 -19 -14
-37z m-2367 -27 c4 -16 6 -31 2 -34 -8 -9 -43 74 -36 86 8 12 22 -10 34 -52z
m228 27 c2 -10 -3 -17 -12 -17 -10 0 -16 9 -16 21 0 24 23 21 28 -4z m2192 16
c0 -5 -7 -20 -14 -35 -8 -16 -11 -28 -7 -28 4 0 14 11 21 25 9 17 17 22 23 16
12 -12 -40 -84 -54 -75 -5 3 -6 10 -3 16 5 7 1 9 -9 5 -28 -11 -29 12 -1 48
25 33 44 45 44 28z m-2054 -29 c-4 -9 -9 -15 -11 -12 -3 3 -3 13 1 22 4 9 9
15 11 12 3 -3 3 -13 -1 -22z m1767 -1 c-4 -16 -7 -61 -7 -101 1 -68 0 -71 -12
-42 -19 45 -23 104 -8 139 16 39 37 42 27 4z m-2169 -17 c19 -40 20 -46 6 -46
-5 0 -10 5 -10 11 0 6 -7 17 -15 25 -16 17 -20 44 -6 44 5 0 16 -15 25 -34z
m2203 -11 c-6 -19 -12 -33 -15 -31 -7 7 9 66 18 66 4 0 3 -16 -3 -35z m-2229
-15 c29 -51 7 -55 -25 -5 -26 40 -28 45 -10 45 6 0 22 -18 35 -40z m193 6
c-13 -31 -32 -35 -26 -4 4 19 25 41 32 34 2 -2 -1 -15 -6 -30z m1041 -43 c9
-24 13 -43 9 -43 -11 0 -62 96 -55 103 10 10 28 -15 46 -60z m1044 51 c-17
-44 -17 -71 -1 -124 21 -69 15 -118 -20 -157 l-25 -28 19 37 c21 43 22 117 2
188 -14 48 -3 100 20 100 6 0 8 -7 5 -16z m255 -1 c-20 -34 -41 -56 -47 -50
-8 7 34 67 47 67 6 0 6 -7 0 -17z m-2562 -38 c11 -19 17 -35 13 -35 -11 0 -52
56 -52 70 0 18 16 3 39 -35z m441 37 c0 -5 -7 -17 -16 -28 -8 -10 -14 -14 -11
-9 2 6 7 18 10 28 7 17 17 23 17 9z m50 4 c0 -2 -6 -18 -14 -36 -9 -22 -16
-28 -21 -20 -8 13 13 60 27 60 4 0 8 -2 8 -4z m288 -45 c-51 -41 -88 -83 -108
-121 -11 -22 -25 -38 -30 -35 -13 8 17 61 56 97 19 18 49 48 67 66 17 18 33
28 35 22 2 -6 -7 -19 -20 -29z m1796 7 c-16 -18 -30 -35 -31 -37 -2 -2 -5 -2
-8 0 -8 9 39 69 54 69 10 0 4 -11 -15 -32z m-2605 -14 c30 -51 26 -60 -9 -21
-30 34 -38 57 -21 57 5 0 18 -16 30 -36z m201 25 c0 -6 -9 -22 -20 -36 -11
-14 -20 -32 -20 -39 0 -7 -4 -16 -10 -19 -7 -4 -7 3 0 20 6 15 10 37 10 50 0
21 10 32 33 34 4 1 7 -4 7 -10z m362 6 c3 -3 -3 -22 -13 -42 -12 -23 -17 -48
-14 -67 4 -23 3 -27 -5 -16 -14 21 -12 71 3 103 12 27 19 32 29 22z m678 -131
c24 -65 28 -130 10 -164 -13 -26 -170 -182 -170 -170 0 12 42 63 82 99 69 62
81 130 49 264 -11 43 -17 86 -13 95 4 11 9 2 14 -26 4 -24 16 -68 28 -98z
m947 122 c-3 -8 3 -38 13 -67 28 -75 31 -110 14 -137 -17 -26 -39 -21 -25 6
11 20 7 75 -8 115 -17 44 -13 97 7 97 2 0 2 -6 -1 -14z m179 -21 c-1 -35 -10
-46 -19 -22 -4 11 8 57 16 57 2 0 3 -16 3 -35z m-922 9 c18 -17 21 -44 6 -44
-5 0 -10 7 -10 15 0 8 -4 15 -9 15 -5 0 -11 7 -15 15 -7 20 8 19 28 -1z m1181
-18 c-17 -25 -35 -35 -35 -18 0 12 41 54 47 49 2 -3 -3 -17 -12 -31z m-2642
-23 c11 -12 16 -26 13 -32 -4 -6 -20 4 -37 24 -17 19 -28 39 -24 45 6 10 10 8
48 -37z m1386 -13 c42 -82 39 -107 -4 -42 -46 68 -60 102 -40 102 7 0 28 -27
44 -60z m44 24 c21 -44 11 -67 -12 -27 -26 43 -32 63 -18 63 7 0 20 -16 30
-36z m733 -7 c2 -18 8 -48 14 -68 13 -39 11 -69 -5 -72 -5 -1 -11 9 -11 23 -1
14 -5 43 -11 65 -5 22 -8 46 -7 53 1 6 2 20 3 29 2 27 15 5 17 -30z m524 33
c0 -13 -41 -60 -52 -60 -4 0 2 16 14 35 23 34 38 45 38 25z m-2460 -51 c-12
-36 -15 -61 -10 -80 12 -40 2 -36 -15 6 -11 26 -12 41 -4 62 9 23 37 63 44 63
1 0 -6 -23 -15 -51z m636 12 c-9 -10 -29 -18 -44 -18 l-27 0 35 28 c38 32 67
24 36 -10z m-718 -6 c-14 -42 -39 -56 -32 -17 7 42 12 52 28 52 12 0 12 -6 4
-35z m1969 21 c0 -7 6 -41 13 -75 7 -34 10 -64 6 -68 -9 -10 -18 3 -22 34 -2
15 -7 43 -10 60 -3 18 -4 40 0 48 7 19 13 19 13 1z m593 7 c-1 -13 -40 -56
-45 -51 -3 3 4 17 16 31 21 27 29 33 29 20z m-2745 -34 c35 -43 17 -64 -19
-23 -26 29 -33 54 -17 54 5 0 21 -14 36 -31z m2570 -22 c-20 -49 -114 -171
-149 -195 -61 -42 -59 -22 3 38 46 44 70 78 97 136 28 62 37 74 48 64 12 -9
12 -16 1 -43z m-2269 -17 c1 -60 -9 -78 -21 -40 -8 24 6 100 18 100 1 0 2 -27
3 -60z m95 30 c1 -16 2 -37 3 -47 1 -22 -22 -29 -30 -9 -8 21 4 86 16 86 6 0
11 -13 11 -30z m1716 3 c0 -16 3 -46 7 -68 4 -22 4 -36 0 -32 -16 16 -31 127
-17 127 5 0 10 -12 10 -27z m247 -64 c2 -16 0 -29 -3 -29 -8 0 -31 83 -30 108
1 24 29 -42 33 -79z m393 73 c-26 -29 -20 -38 8 -12 14 13 25 18 25 12 0 -7 5
-12 11 -12 6 0 17 -6 24 -14 12 -11 10 -17 -10 -36 -14 -13 -27 -21 -31 -18
-3 3 5 15 17 27 13 12 18 21 13 21 -6 0 -15 -5 -22 -12 -6 -6 -15 -8 -19 -3
-5 4 -2 10 5 12 6 3 12 9 12 15 0 6 -9 3 -20 -7 -16 -14 -23 -16 -32 -7 -9 9
-7 16 7 32 10 11 20 20 23 20 3 0 -2 -8 -11 -18z m-2409 -43 c-1 -50 -14 -56
-21 -9 -4 23 7 60 18 60 3 0 4 -23 3 -51z m597 31 c-10 -11 -22 -20 -27 -20
-5 0 -4 9 2 20 6 11 18 20 27 20 14 0 14 -2 -2 -20z m134 3 c-8 -10 -44 -47
-80 -83 -36 -36 -71 -74 -77 -85 -6 -11 -13 -17 -17 -13 -14 14 8 48 58 87 29
22 63 57 77 76 14 19 31 35 39 35 11 0 11 -3 0 -17z m177 -58 c16 -60 13 -119
-7 -158 -17 -31 -87 -98 -93 -88 -3 4 8 21 25 37 17 16 37 41 45 57 17 32 19
117 5 167 -14 46 -14 67 0 53 5 -5 17 -36 25 -68z m779 33 c1 -18 5 -45 9 -60
7 -29 -11 -41 -19 -13 -3 8 -8 23 -12 33 -11 31 -12 45 -2 65 14 24 21 16 24
-25z m-2058 -3 c30 -45 14 -53 -20 -10 -30 38 -33 45 -14 45 6 0 22 -16 34
-35z m158 25 c-13 -21 -15 -103 -4 -116 7 -8 9 -18 5 -21 -14 -14 -26 23 -26
78 0 31 3 59 7 62 10 11 25 8 18 -3z m872 -14 c-8 -11 -33 -36 -57 -55 -41
-34 -43 -35 -35 -11 9 28 71 87 92 87 11 0 11 -4 0 -21z m1072 -28 c5 -21 6
-38 2 -38 -11 0 -29 62 -23 80 3 8 7 11 8 5 2 -5 7 -27 13 -47z m-1521 11 c2
-19 -2 -28 -8 -24 -11 7 -14 38 -3 48 9 10 8 10 11 -24z m802 -13 c0 -5 -7 -1
-15 10 -8 10 -14 24 -14 29 0 6 6 1 14 -9 8 -11 15 -24 15 -30z m-1390 -36 c0
-19 -15 -9 -37 25 -13 19 -23 38 -23 42 1 12 60 -56 60 -67z m534 54 c20 -19
21 -34 2 -34 -13 0 -26 20 -26 41 0 13 6 11 24 -7z m931 -82 c30 -64 31 -71 4
-118 -26 -47 -29 -50 -126 -117 -60 -42 -87 -68 -100 -97 -19 -41 -34 -53 -28
-22 12 63 56 111 157 173 76 46 102 121 67 193 -11 23 -25 52 -30 66 l-9 25
20 -25 c11 -14 31 -49 45 -78z m-1514 45 l11 -22 -21 22 c-22 23 -28 39 -11
28 5 -3 15 -16 21 -28z m165 1 c0 -18 3 -45 7 -60 6 -21 4 -28 -7 -28 -10 0
-15 16 -18 56 -1 31 -1 58 1 60 12 11 18 1 17 -28z m1128 1 c14 -73 2 -131
-36 -173 -21 -23 -25 -10 -4 13 20 24 36 78 30 103 -13 56 -15 88 -6 88 5 0
12 -14 16 -31z m775 -14 c3 -6 -2 -2 -11 8 -10 11 -15 24 -11 31 5 7 9 4 11
-9 2 -11 7 -25 11 -30z m875 36 c3 -5 -12 -20 -34 -35 -48 -32 -52 -24 -7 15
37 33 34 32 41 20z m-2950 -53 c10 -16 15 -28 11 -28 -15 0 -66 61 -60 70 7
12 23 -2 49 -42z m2770 30 c-6 -22 -87 -142 -109 -163 -40 -38 -88 -75 -98
-75 -7 0 11 22 40 49 49 46 126 152 138 192 4 10 13 19 21 19 11 0 13 -6 8
-22z m-1881 -29 c-3 -10 -12 -19 -19 -19 -17 0 -17 2 -2 35 13 28 29 16 21
-16z m1522 -16 c-3 -34 -20 -63 -37 -63 -5 0 -2 10 6 22 9 12 16 41 16 63 0
27 3 36 9 26 5 -8 8 -29 6 -48z m-2280 37 c3 -5 1 -10 -4 -10 -6 0 -11 5 -11
10 0 6 2 10 4 10 3 0 8 -4 11 -10z m2815 -20 c-19 -16 -42 -29 -50 -29 -10 0
-7 6 10 19 14 11 30 24 35 29 6 6 17 10 25 10 9 0 0 -12 -20 -29z m-2981 -12
c21 -22 27 -36 20 -43 -7 -7 -13 -5 -19 5 -21 37 -39 54 -47 46 -4 -5 -2 -11
5 -13 12 -5 47 -63 37 -63 -2 0 -18 14 -35 32 -28 29 -29 32 -14 50 10 10 18
18 20 18 2 0 17 -15 33 -32z m749 21 c32 -6 -5 -10 -119 -13 -129 -4 -150 -7
-237 -32 -29 -9 -58 -13 -65 -11 -6 3 -3 6 8 6 12 1 26 6 33 13 7 7 12 9 12 5
0 -3 11 -2 25 3 37 14 72 21 134 25 30 3 55 6 57 8 3 3 128 0 152 -4z m548
-85 c-4 -18 -14 -38 -23 -45 -15 -12 -16 -12 -8 6 4 11 9 40 10 65 3 70 6 78
17 41 5 -19 7 -49 4 -67z m216 59 c18 -44 7 -103 -25 -130 -14 -11 -17 -12
-10 -3 11 14 21 54 28 105 1 11 -4 30 -11 43 -8 12 -10 22 -5 22 5 0 15 -16
23 -37z m1492 -9 c-40 -35 -46 -38 -57 -28 -9 9 75 74 86 67 6 -3 -8 -21 -29
-39z m-2707 0 c-9 -10 -38 16 -31 28 4 6 13 4 22 -6 9 -8 13 -19 9 -22z m51
18 c2 -7 -3 -12 -12 -12 -9 0 -16 7 -16 16 0 17 22 14 28 -4z m1131 -51 c1
-38 -10 -18 -14 25 -3 29 -2 34 5 19 5 -11 9 -31 9 -44z m569 29 c13 -16 20
-30 18 -30 -8 0 -46 43 -46 52 0 13 5 9 28 -22z m-1172 -1 c37 -12 84 -33 104
-47 49 -36 256 -249 340 -350 28 -33 -98 83 -135 125 -138 156 -225 230 -305
258 -3 1 -12 4 -20 8 -8 3 -28 10 -45 15 -58 20 -6 12 61 -9z m1595 -32 c-6
-15 -16 -27 -23 -26 -10 0 -10 2 -1 6 7 2 16 21 20 41 4 20 8 30 10 21 2 -8
-1 -28 -6 -42z m594 43 c3 -5 -11 -25 -32 -44 -29 -26 -41 -32 -51 -23 -11 9
-6 17 25 43 41 36 49 39 58 24z m-2258 -28 c114 -38 183 -81 268 -170 44 -47
126 -130 181 -186 56 -55 113 -119 128 -142 15 -23 37 -46 49 -51 12 -6 72
-10 132 -10 61 0 147 -3 193 -7 97 -7 100 -6 139 81 14 32 40 90 58 128 18 39
38 86 45 105 36 97 127 219 163 220 7 1 29 3 50 6 21 3 46 3 55 -1 9 -4 26 -8
37 -9 11 -1 49 -24 85 -51 79 -61 132 -95 185 -120 22 -10 58 -30 80 -45 22
-15 66 -40 98 -55 67 -33 96 -60 132 -120 21 -37 26 -59 30 -152 2 -59 11
-138 19 -175 14 -68 63 -204 97 -270 11 -21 17 -38 14 -38 -3 0 1 -13 9 -29 8
-15 17 -39 19 -52 3 -13 10 -42 15 -64 10 -37 10 -75 -3 -168 -2 -21 -16 -59
-30 -85 -13 -26 -36 -70 -51 -98 l-27 -51 27 -39 c26 -40 61 -128 70 -176 2
-15 9 -36 16 -47 6 -12 8 -21 6 -21 -3 0 2 -19 10 -42 9 -24 17 -50 18 -58 1
-8 10 -31 18 -50 9 -20 19 -79 22 -135 4 -55 10 -118 13 -140 3 -22 7 -123 8
-225 3 -209 7 -243 41 -407 15 -76 20 -121 14 -127 -15 -15 -20 -3 -35 85 -19
119 -25 152 -30 169 -11 40 -15 81 -14 145 3 208 -12 443 -34 545 -2 8 -7 33
-12 55 -4 22 -11 47 -15 55 -5 8 -11 33 -14 55 -7 46 -33 132 -47 157 -5 10
-9 23 -9 30 0 18 -59 141 -72 149 -6 4 0 25 15 55 53 106 91 235 91 314 0 66
-6 90 -48 200 -113 292 -113 290 -121 454 -4 78 -11 122 -26 157 -12 27 -24
49 -28 49 -3 0 -24 16 -45 35 -22 19 -92 62 -155 96 -64 34 -134 74 -156 88
-22 14 -48 29 -57 33 -10 4 -42 25 -71 47 -60 43 -117 63 -162 56 -53 -9 -150
-137 -179 -235 -20 -68 -129 -292 -151 -310 -20 -16 -335 -8 -410 11 -67 16
-69 19 -162 134 -189 235 -355 374 -511 426 -46 15 -89 21 -155 21 -108 0
-119 -1 -249 -43 -54 -17 -106 -32 -116 -34 -9 -2 -17 -4 -17 -5 0 -1 -8 -3
-17 -5 -63 -12 -156 -49 -220 -88 -62 -37 -101 -112 -102 -197 0 -47 5 -67 30
-107 42 -68 94 -93 198 -93 79 0 79 0 116 -39 20 -21 40 -53 44 -71 5 -28 28
-78 99 -215 9 -16 30 -61 47 -100 17 -38 45 -92 62 -118 l31 -48 -40 -42 c-78
-83 -78 -82 -78 -277 0 -158 -2 -179 -22 -222 -23 -50 -25 -52 -268 -201 -55
-33 -102 -63 -105 -66 -3 -4 -48 -38 -100 -77 -145 -109 -166 -135 -174 -213
-7 -78 76 -268 138 -312 30 -22 48 -49 82 -125 24 -53 51 -105 60 -115 32 -36
116 -68 189 -74 39 -3 82 -7 95 -10 14 -3 74 -7 134 -10 61 -3 110 -7 110 -8
5 -18 62 -120 76 -135 19 -20 19 -21 -25 -49 -25 -15 -45 -31 -45 -35 0 -5 -6
-8 -13 -8 -7 0 -58 -31 -113 -69 -144 -101 -295 -193 -303 -186 -6 7 77 84 91
85 4 0 27 13 50 29 89 59 185 119 228 143 65 36 120 70 120 73 0 1 -13 18 -30
36 -16 19 -32 46 -35 61 -4 15 -12 31 -18 35 -6 4 -50 8 -97 10 -47 1 -101 5
-120 7 -19 3 -66 6 -105 7 -71 3 -139 27 -194 70 -30 24 -76 111 -92 172 -9
36 -22 56 -58 86 -35 30 -62 68 -101 142 -49 94 -53 108 -54 173 -1 81 7 97
85 160 26 21 56 45 66 54 10 10 30 24 44 32 107 63 339 219 389 261 81 69 85
79 86 264 1 89 5 172 9 185 8 26 48 92 74 123 21 26 20 46 -6 89 -13 21 -23
43 -23 50 0 8 -11 29 -24 48 -13 20 -38 69 -55 110 -18 41 -38 81 -46 90 -7 8
-23 44 -34 80 -34 102 -46 113 -127 115 -117 3 -164 14 -199 49 -66 66 -107
175 -84 226 4 8 9 29 12 47 3 17 13 44 22 60 16 28 84 84 107 90 29 7 197 65
253 88 52 21 217 59 295 68 66 7 193 -3 247 -21z m-854 -13 c33 -45 14 -53
-22 -9 -25 32 -29 41 -16 38 10 -1 27 -15 38 -29z m1297 -6 c0 -20 -3 -33 -7
-29 -8 8 -12 48 -6 59 9 15 13 6 13 -30z m1038 26 c-2 -6 -34 -12 -72 -14 -53
-3 -76 -10 -106 -30 -55 -38 -80 -64 -80 -83 0 -10 -7 -27 -15 -39 -8 -12 -33
-63 -54 -115 -45 -107 -55 -130 -96 -212 -29 -58 -32 -61 -65 -59 -19 1 -106
3 -192 6 -167 4 -171 5 -210 60 l-21 29 23 -12 c12 -7 25 -21 27 -31 4 -15 15
-19 57 -20 28 0 83 -2 121 -5 172 -12 209 -10 227 8 10 10 21 30 24 45 4 16
31 76 61 135 29 59 53 111 53 116 0 5 13 35 29 68 49 100 97 141 173 149 10 1
21 5 25 8 11 12 95 8 91 -4z m605 5 c13 -13 -123 -194 -165 -219 -41 -24 -34
-10 28 58 31 34 70 86 87 115 31 51 38 58 50 46z m-2807 -35 c1 -19 -1 -26 -6
-19 -4 7 -6 20 -5 29 7 32 10 29 11 -10z m905 8 c-10 -9 -11 -8 -5 6 3 10 9
15 12 12 3 -3 0 -11 -7 -18z m1385 -15 c32 -21 66 -45 74 -53 8 -8 41 -31 73
-49 31 -19 57 -39 57 -43 0 -8 -79 34 -105 55 -40 33 -148 108 -155 108 -5 0
-12 5 -15 10 -12 19 12 10 71 -28z m698 2 c-40 -34 -64 -47 -64 -35 0 15 72
71 83 64 5 -3 -4 -16 -19 -29z m-3162 7 c27 -32 40 -61 27 -61 -11 0 -42 32
-60 63 -14 24 12 23 33 -2z m398 15 c0 -2 -9 -6 -20 -9 -11 -3 -18 -1 -14 4 5
9 34 13 34 5z m-60 -26 c-19 -12 -30 -12 -30 -1 0 10 31 20 40 14 2 -2 -2 -8
-10 -13z m-190 -10 c0 -11 -4 -20 -10 -20 -5 0 -10 9 -10 20 0 11 5 20 10 20
6 0 10 -9 10 -20z m3030 -15 c-31 -32 -61 -46 -60 -27 1 10 71 62 84 62 5 0
-5 -16 -24 -35z m-3196 -6 c28 -33 26 -59 -2 -37 -23 18 -51 51 -52 61 0 18
30 4 54 -24z m316 22 c0 -5 -8 -12 -17 -15 -148 -43 -225 -71 -251 -92 -44
-37 -80 -94 -85 -134 -3 -19 -8 -48 -12 -63 -15 -56 34 -177 94 -234 37 -34
100 -50 214 -57 67 -3 75 -11 108 -101 12 -33 29 -71 39 -85 14 -21 27 -47 35
-70 9 -27 27 -69 37 -85 23 -39 67 -134 73 -158 6 -22 -24 -92 -44 -107 -4 -3
-15 -21 -24 -41 -13 -29 -16 -65 -16 -180 2 -175 -7 -211 -63 -266 -40 -38
-277 -203 -292 -203 -4 0 -31 -18 -60 -40 -29 -22 -56 -40 -60 -40 -10 0 -137
-103 -162 -131 -42 -49 -49 -103 -26 -192 20 -76 94 -207 147 -260 34 -35 56
-66 64 -95 13 -46 54 -125 79 -154 25 -29 107 -78 135 -80 14 -1 23 -6 21 -10
-14 -22 -116 26 -162 76 -38 42 -82 121 -82 147 0 33 -23 69 -56 88 -20 12
-40 37 -53 65 -11 25 -30 60 -43 78 -49 68 -88 171 -88 233 1 49 37 115 93
166 28 27 55 49 59 49 3 0 13 6 20 13 30 29 160 117 261 177 128 76 217 145
235 183 9 19 14 81 15 200 l2 172 42 68 c41 67 45 93 20 125 -5 6 -6 12 -2 12
4 0 3 6 -3 13 -20 25 -114 212 -119 236 -7 39 -65 149 -82 157 -9 4 -36 8 -61
10 -78 5 -121 14 -153 31 -57 28 -109 76 -125 112 -15 35 -18 45 -24 86 -2 11
-6 25 -9 30 -6 11 -5 42 5 114 8 67 71 149 138 183 30 15 157 55 202 64 10 2
21 6 24 9 8 8 12 6 12 -4z m-198 -33 c-7 -7 -12 -8 -12 -2 0 14 12 26 19 19 2
-3 -1 -11 -7 -17z m2008 15 c0 -5 -5 -15 -10 -23 -8 -12 -10 -11 -10 8 0 12 5
22 10 22 6 0 10 -3 10 -7z m1086 -28 c-22 -19 -43 -32 -47 -29 -11 7 52 63 71
64 9 0 -2 -15 -24 -35z m-3241 -7 c34 -40 15 -51 -19 -11 -14 15 -26 31 -26
36 0 16 20 5 45 -25z m918 -9 c77 -35 157 -83 197 -118 14 -12 34 -30 45 -40
27 -24 84 -87 184 -204 149 -175 159 -183 231 -186 25 -1 65 -4 90 -7 95 -10
356 -11 373 -2 29 15 85 112 128 221 22 56 44 111 49 122 5 11 21 47 35 80 29
66 69 115 95 115 16 0 88 -43 100 -59 15 -19 126 -84 195 -113 154 -64 221
-106 265 -164 41 -54 49 -74 29 -74 -5 0 -8 4 -5 9 5 8 -29 58 -66 95 -17 16
-128 70 -128 61 0 -10 -186 78 -200 94 -3 3 -30 25 -60 47 -30 23 -66 51 -79
63 -13 11 -34 21 -45 21 -32 0 -74 -45 -86 -93 -6 -23 -14 -51 -18 -62 -3 -11
-6 -22 -7 -25 -1 -8 -26 -71 -46 -117 -11 -24 -19 -45 -19 -47 0 -12 -94 -154
-116 -174 -22 -21 -34 -23 -137 -24 -61 -1 -157 2 -212 6 -55 4 -124 8 -153
10 -47 3 -57 8 -105 52 -59 55 -126 132 -207 234 -19 25 -48 56 -64 70 -17 14
-37 32 -45 41 -22 23 -135 99 -201 136 -135 76 -244 76 -429 -1 -48 -20 -125
-48 -141 -51 -49 -10 -86 -22 -136 -46 -54 -25 -63 -34 -78 -72 -18 -47 -18
-105 -1 -122 36 -35 72 -48 135 -48 36 0 81 5 100 10 53 15 77 1 89 -49 24
-99 57 -179 112 -273 32 -56 62 -116 65 -135 5 -24 29 -55 78 -105 39 -39 80
-76 90 -82 18 -10 17 -13 -20 -59 -21 -27 -41 -51 -44 -54 -33 -31 -104 -143
-96 -151 2 -2 6 -27 10 -54 3 -28 11 -66 17 -84 25 -70 -19 -211 -83 -269 -22
-20 -74 -57 -116 -84 -42 -26 -86 -57 -99 -68 -12 -11 -42 -31 -65 -46 -103
-64 -184 -119 -200 -135 -10 -10 -37 -31 -61 -48 -52 -35 -77 -70 -77 -106 0
-14 16 -60 37 -103 27 -59 54 -94 110 -149 44 -44 74 -82 75 -95 0 -13 2 -27
3 -33 2 -5 3 -22 4 -36 2 -40 30 -64 96 -82 108 -29 180 -37 376 -38 131 0
113 11 163 -103 29 -64 33 -88 14 -80 -23 9 -50 55 -55 93 -9 69 -12 70 -126
69 -56 -1 -127 2 -158 6 -53 6 -68 9 -129 21 -14 2 -45 7 -70 10 -113 14 -119
21 -135 145 -3 26 -16 46 -53 80 -53 48 -132 162 -132 190 0 9 -4 20 -9 26
-21 22 -30 86 -17 118 17 41 98 114 205 185 253 170 379 256 408 281 57 50 76
154 58 315 -4 33 -7 62 -8 65 -5 30 25 93 74 157 33 43 59 80 59 83 0 4 -18
26 -40 49 -44 46 -100 137 -100 162 0 9 -17 42 -38 75 -49 75 -93 170 -122
259 -29 90 -55 115 -112 109 -121 -13 -160 -5 -209 42 -34 33 -39 44 -39 82 0
24 7 58 15 76 21 44 115 93 234 123 52 13 125 35 161 50 154 63 272 66 393 12z
m2186 -2 c-29 -30 -42 -57 -29 -57 5 0 10 7 10 15 0 8 7 15 15 15 8 0 15 4 15
8 0 19 35 7 61 -22 27 -29 40 -64 20 -52 -14 9 -31 -18 -24 -42 6 -24 34 -29
51 -9 7 8 7 18 2 27 -17 26 -11 31 10 10 12 -12 18 -25 15 -30 -4 -6 0 -10 8
-10 8 0 20 -7 27 -15 15 -18 -1 -20 -18 -3 -9 9 -15 9 -24 0 -6 -6 -8 -15 -4
-19 4 -4 11 -1 16 6 6 11 11 10 21 -7 8 -12 17 -18 24 -13 6 5 20 -1 33 -15
12 -13 17 -24 11 -24 -8 0 -8 -4 1 -15 6 -8 16 -13 22 -12 5 1 17 -8 25 -20
17 -26 3 -31 -21 -8 -13 14 -15 13 -13 -5 1 -11 4 -20 8 -20 4 0 7 -11 7 -25
0 -14 -5 -22 -11 -18 -6 3 -7 1 -3 -5 4 -7 18 -12 31 -12 13 0 27 -5 30 -10 5
-8 11 -8 20 0 9 7 16 6 26 -7 11 -13 11 -17 2 -20 -7 -3 -13 -12 -13 -20 0
-12 3 -13 14 -4 17 14 38 -8 40 -42 1 -12 7 -21 13 -20 6 1 13 -7 16 -17 3
-11 1 -20 -4 -20 -5 0 -9 -15 -9 -34 0 -24 -5 -36 -17 -39 -16 -4 -15 -6 4
-12 20 -7 20 -8 3 -25 -9 -9 -20 -24 -23 -31 -4 -11 -9 -10 -22 6 -14 17 -14
21 -1 31 9 6 13 19 9 33 -4 17 -1 23 16 28 11 3 18 9 15 14 -9 15 -20 10 -35
-17 -19 -37 -49 -46 -69 -21 -24 29 -42 14 -28 -24 8 -24 7 -33 -7 -49 -9 -10
-14 -23 -11 -29 3 -5 1 -11 -6 -13 -6 -2 -8 -10 -4 -16 11 -18 24 -15 22 5 0
10 6 19 14 20 10 2 16 -4 17 -17 1 -11 -2 -20 -8 -20 -5 0 -9 -4 -9 -10 0 -20
20 -9 34 19 12 23 20 27 42 23 18 -3 25 -1 20 6 -4 6 6 5 21 -3 45 -24 62 -18
28 9 -35 28 -30 38 22 42 34 2 36 1 19 -11 -10 -8 -15 -19 -11 -25 8 -13 46
19 38 33 -2 4 3 7 11 7 26 0 19 -14 -37 -73 -29 -32 -51 -57 -48 -57 6 0 -73
-75 -122 -115 -20 -16 -55 -47 -79 -67 -47 -42 -53 -45 -62 -23 -4 10 6 18 34
26 47 14 53 35 11 34 -16 0 -27 -3 -25 -6 2 -4 -3 -9 -11 -13 -16 -6 -17 -5
-39 47 -16 39 -10 41 27 9 10 -9 27 -17 39 -19 24 -4 58 23 58 45 0 8 6 12 14
9 8 -3 20 1 26 9 7 8 21 14 30 14 33 0 50 12 50 35 0 13 -5 27 -10 30 -8 5 -7
11 1 21 18 22 -4 16 -41 -11 -18 -13 -38 -21 -44 -18 -6 4 -4 -4 6 -18 15 -24
15 -26 -2 -37 -24 -15 -34 -3 -12 15 16 13 15 14 -5 8 -12 -3 -24 -1 -28 5 -7
11 -54 13 -71 2 -6 -4 -14 -16 -18 -27 -8 -28 -41 -29 -53 -2 -7 14 -5 29 4
48 21 42 36 51 59 34 12 -9 14 -14 6 -15 -7 0 -11 -4 -8 -9 3 -5 15 -7 27 -4
14 4 18 11 14 22 -18 44 -16 79 5 94 27 19 18 37 -18 37 -21 0 -23 3 -12 10 8
5 11 12 7 16 -3 4 -13 1 -21 -5 -12 -10 -18 -6 -34 26 l-20 38 -7 -27 c-4 -15
-4 -31 -1 -37 11 -16 -5 -39 -31 -46 -19 -4 -22 -9 -14 -19 6 -7 9 -21 5 -30
-3 -9 -1 -16 6 -16 6 0 8 5 5 10 -3 6 1 10 9 10 18 0 22 -25 6 -35 -12 -8 -13
-26 -1 -23 5 2 9 0 10 -4 3 -21 0 -28 -13 -28 -16 0 -51 114 -40 131 3 6 0 15
-7 20 -15 9 -22 89 -8 89 5 0 9 5 9 11 0 5 -4 8 -9 5 -5 -3 -11 7 -14 22 -3
15 -1 30 4 33 6 3 9 10 7 15 -2 5 0 10 5 12 8 2 47 -34 47 -45 0 -4 5 -8 12
-9 7 -1 19 -3 27 -5 7 -2 16 2 18 9 3 8 -5 12 -23 12 -26 0 -26 1 -10 19 24
27 13 61 -20 61 -14 0 -27 -6 -30 -13 -8 -22 -32 -16 -39 10 -3 13 -3 28 0 33
9 14 36 12 33 -1 -2 -6 3 -14 10 -16 16 -6 15 7 -4 32 -12 16 -18 17 -33 8
-16 -10 -20 -8 -30 13 -14 31 -14 64 -1 64 6 0 10 -9 10 -19 0 -23 26 -35 34
-15 4 10 11 11 30 5 32 -13 38 -4 21 30 -19 36 -19 38 6 32 16 -5 20 -2 17 13
-4 24 -28 34 -50 23 -12 -7 -21 -4 -31 11 -9 13 -20 18 -31 14 -19 -7 -19 -6
-7 -37 13 -33 -15 -47 -35 -18 -8 10 -34 32 -59 49 l-46 30 24 28 c17 19 24
23 24 11 0 -9 -4 -14 -8 -11 -4 2 -10 0 -14 -6 -3 -6 1 -13 9 -16 9 -3 13 -10
10 -15 -3 -5 2 -9 10 -9 9 0 13 6 10 14 -4 10 2 12 20 9 22 -5 26 -2 26 20 0
26 -23 42 -43 30 -6 -4 -1 6 11 22 13 17 37 49 54 72 17 23 35 40 40 37 4 -3
-2 -15 -13 -27z m159 -2 c-21 -19 -43 -35 -50 -35 -7 0 5 16 27 35 52 45 71
45 23 0z m-1552 -42 c-14 -21 -40 -47 -58 -58 -18 -10 -44 -30 -58 -43 -14
-13 -37 -31 -53 -40 -29 -18 -40 -41 -39 -85 1 -24 -2 -26 -14 -17 -16 14 -11
60 12 99 9 14 46 46 82 71 75 50 124 95 137 125 7 17 9 18 12 3 2 -9 -7 -34
-21 -55z m-1729 22 c27 -43 9 -47 -30 -7 -31 33 -34 42 -9 42 9 -1 27 -16 39
-35z m3324 18 c-17 -32 -71 -68 -71 -48 0 8 64 64 73 65 4 0 3 -8 -2 -17z
m-1740 -26 l-24 -22 19 27 c10 14 21 24 23 22 3 -3 -6 -15 -18 -27z m-1594
-53 c-10 -10 -67 46 -67 65 0 10 13 3 37 -21 20 -21 34 -41 30 -44z m3328 29
c-21 -18 -41 -31 -44 -28 -7 8 63 71 73 66 5 -2 -8 -19 -29 -38z m-1540 7 c-2
-23 -112 -140 -132 -140 -18 0 -16 17 3 24 8 3 12 11 8 17 -4 7 -3 9 3 6 16
-10 79 40 97 77 19 41 23 44 21 16z m341 -13 c-3 -18 -12 -47 -21 -63 -15 -29
-15 -29 -9 21 7 64 11 75 24 75 7 0 9 -13 6 -33z m1222 -14 c-21 -20 -41 -34
-45 -30 -8 8 55 67 72 67 5 0 -7 -17 -27 -37z m-3393 -3 c16 -16 24 -30 19
-30 -6 0 -21 12 -33 26 -12 14 -25 23 -28 21 -3 -3 7 -18 21 -34 32 -34 34
-53 4 -27 -39 33 -47 48 -36 61 15 18 21 17 53 -17z m2463 -9 c66 -71 219
-164 317 -194 139 -41 193 -91 209 -190 l6 -39 -26 32 c-39 46 -153 100 -222
105 -31 3 -90 7 -131 10 -86 6 -150 31 -178 71 -65 93 -86 189 -48 219 29 21
43 18 73 -14z m972 21 c0 -4 -16 -23 -35 -42 -42 -40 -46 -31 -7 15 27 33 42
43 42 27z m-1580 -49 c-38 -49 -128 -124 -135 -113 -9 14 137 161 149 150 5
-5 -1 -21 -14 -37z m270 27 c0 -40 -41 -126 -81 -170 -22 -25 -54 -69 -71 -97
-31 -54 -48 -67 -48 -35 0 20 24 55 97 141 42 50 55 73 65 121 7 36 17 60 25
60 7 0 13 -9 13 -20z m1350 -27 c0 -11 -71 -56 -78 -49 -3 4 3 13 14 21 11 8
14 15 7 15 -8 0 -5 9 8 24 18 21 24 23 35 11 8 -7 14 -17 14 -22z m-3517 -2
c32 -35 34 -45 7 -36 -11 4 -20 2 -20 -4 0 -6 5 -11 10 -11 6 0 10 -5 10 -12
0 -7 -16 3 -35 22 -36 35 -41 57 -5 25 11 -10 20 -13 20 -8 0 6 -7 16 -15 23
-16 13 -20 30 -7 30 4 0 19 -13 35 -29z m1967 7 c0 -6 -34 -46 -76 -89 -88
-90 -106 -116 -118 -172 -10 -42 -28 -21 -22 24 8 56 28 90 88 145 30 27 64
63 77 81 22 29 51 35 51 11z m144 -5 c-14 -56 -34 -89 -89 -153 -31 -36 -60
-74 -65 -85 -7 -19 -7 -19 -18 1 -9 16 -3 27 34 69 45 49 104 129 104 139 0 2
4 16 10 30 13 35 32 34 24 -1z m-106 -18 c-6 -14 -17 -25 -25 -25 -11 0 -11 6
2 30 19 36 40 31 23 -5z m51 -2 c-13 -34 -29 -54 -39 -48 -11 7 22 75 37 75 9
0 10 -6 2 -27z m886 7 c3 -5 2 -10 -4 -10 -5 0 -13 5 -16 10 -3 6 -2 10 4 10
5 0 13 -4 16 -10z m579 -21 c-22 -24 -54 -43 -61 -36 -4 5 66 57 76 57 2 0 -4
-9 -15 -21z m-3538 -56 c-4 -4 -11 -1 -16 7 -5 8 -12 11 -16 7 -4 -3 -1 -13 6
-22 7 -9 10 -18 7 -22 -4 -3 -9 2 -13 11 -3 9 -11 16 -18 16 -6 0 -17 9 -24
20 -13 22 -3 27 16 8 6 -6 15 -8 19 -4 4 4 0 12 -10 17 -9 6 -15 15 -11 21 4
6 19 -2 37 -21 17 -17 28 -34 23 -38z m3167 -51 c8 -15 20 -47 27 -72 7 -25
17 -49 20 -55 4 -5 8 -39 10 -75 4 -112 9 -164 14 -185 3 -11 12 -43 20 -71 8
-29 30 -81 50 -118 20 -36 33 -66 30 -66 -4 0 -2 -6 4 -12 30 -38 60 -200 57
-308 -3 -101 -10 -124 -63 -210 -32 -50 -34 -57 -22 -85 6 -16 17 -48 22 -70
6 -22 15 -45 20 -51 16 -21 39 -116 32 -133 -5 -12 -9 -9 -14 14 -22 85 -52
181 -60 191 -5 6 -16 26 -24 46 -14 33 -14 37 8 69 64 94 86 168 89 304 0 16
-55 209 -63 220 -15 21 -93 221 -97 250 -2 16 -8 46 -13 65 -5 19 -10 76 -11
125 -2 97 -14 165 -29 165 -6 0 -10 7 -10 16 0 27 -95 110 -149 130 -27 9 -48
21 -45 25 2 4 45 -13 94 -38 63 -31 94 -52 103 -71z m381 74 c-26 -23 -54 -34
-54 -21 0 7 73 55 78 50 2 -2 -9 -15 -24 -29z m-2003 1 c-10 -9 -11 -8 -5 6 3
10 9 15 12 12 3 -3 0 -11 -7 -18z m-1468 -41 c-5 -58 8 -142 28 -191 7 -16 13
-33 13 -37 3 -22 125 -105 168 -114 40 -8 102 -17 133 -18 17 -1 36 -5 43 -9
13 -9 61 -98 67 -126 3 -9 7 -27 10 -41 l7 -25 -14 25 c-12 22 -23 26 -57 21
-5 0 -7 -10 -4 -20 5 -19 3 -19 -41 -3 -38 14 -46 21 -46 42 0 51 10 69 40 68
35 -1 51 9 43 27 -7 20 -22 19 -45 -2 -11 -9 -18 -11 -18 -5 0 7 6 12 13 12 8
0 8 3 -2 9 -8 5 -20 7 -27 4 -6 -2 -15 1 -19 6 -3 6 -11 9 -16 6 -5 -4 -9 0
-9 7 0 7 -10 -2 -21 -20 -20 -30 -20 -34 -5 -57 20 -31 20 -35 -1 -35 -15 0
-15 -1 0 -18 24 -26 22 -30 -20 -38 -21 -4 -51 -14 -68 -22 -16 -9 -37 -16
-45 -16 -9 -1 -14 -8 -12 -18 2 -10 -2 -18 -7 -18 -5 0 -20 -18 -32 -39 -12
-22 -30 -42 -40 -44 -25 -7 -24 4 1 26 11 9 20 21 20 26 0 14 -67 61 -88 61
-10 0 -21 3 -25 6 -9 9 15 54 28 54 15 0 27 38 14 45 -4 3 -5 13 -2 22 5 13 2
15 -17 10 -17 -4 -30 2 -52 23 -16 16 -31 29 -33 30 -3 0 -14 0 -25 0 -19 0
-19 1 -1 33 l18 32 -33 2 c-28 3 -34 -1 -43 -27 -8 -26 -7 -30 7 -30 9 0 1 -8
-18 -18 -19 -9 -36 -14 -38 -10 -2 3 6 23 17 45 11 21 27 53 36 72 12 27 18
32 27 23 7 -7 17 -12 22 -12 6 0 3 7 -8 15 -19 14 -14 35 9 35 8 0 11 7 8 19
-4 17 19 51 37 51 4 0 11 -12 15 -27 6 -26 7 -27 17 -8 6 11 12 21 13 23 1 1
9 0 17 -3 10 -4 14 -14 11 -26 -7 -23 21 -36 42 -19 20 16 19 27 -3 34 -9 3
-23 15 -30 26 -16 26 -6 46 14 29 8 -6 14 -9 14 -5 0 3 0 9 0 14 0 4 -4 8 -10
8 -5 1 -13 3 -17 4 -12 4 -27 7 -40 8 -17 3 -17 29 0 35 8 3 20 1 27 -3 15 -9
40 -2 40 11 0 5 -16 7 -35 5 -39 -5 -41 -3 -22 16 7 7 23 30 36 51 12 20 26
37 30 37 5 0 6 -24 4 -54z m3517 35 c0 -5 -16 -18 -35 -30 -41 -24 -47 -12 -9
18 29 22 44 27 44 12z m-3670 -33 c0 -5 -6 -6 -12 -2 -9 5 -9 2 1 -9 15 -18
26 -23 16 -7 -3 6 -2 10 3 10 6 0 13 -7 16 -16 4 -10 2 -13 -6 -8 -8 5 -9 1
-4 -12 5 -14 -1 -11 -24 11 -17 16 -26 31 -20 33 5 2 8 8 5 13 -4 5 1 6 9 3 9
-3 16 -10 16 -16z m3690 13 c0 -12 -69 -55 -76 -48 -3 3 11 17 33 31 45 29 43
29 43 17z m-1713 -69 c-14 -15 -35 -46 -47 -70 -26 -50 -40 -61 -40 -33 0 29
33 89 72 130 27 29 34 32 36 17 2 -10 -7 -30 -21 -44z m232 -9 c-35 -70 -84
-130 -92 -116 -9 14 21 63 73 122 25 28 46 51 47 51 1 0 -11 -26 -28 -57z
m1476 32 c-16 -14 -36 -25 -44 -25 -8 0 0 11 19 25 44 32 64 32 25 0z m-3697
-16 c19 -17 31 -33 28 -36 -6 -6 -62 37 -70 55 -9 20 7 13 42 -19z m3748 -4
c13 -26 7 -35 -31 -50 -12 -4 -15 -9 -8 -12 6 -2 25 3 42 12 26 13 31 13 31 1
0 -11 -40 -31 -79 -40 -2 -1 -5 8 -7 18 -2 12 9 30 24 43 29 25 19 32 -12 8
-21 -16 -46 -20 -46 -7 0 7 59 50 70 51 3 1 10 -10 16 -24z m-1702 9 c14 -5
11 -12 -17 -39 -18 -17 -39 -34 -46 -36 -8 -3 -13 -17 -13 -32 0 -15 -5 -27
-10 -27 -17 0 2 53 35 97 18 23 33 43 34 43 1 0 9 -3 17 -6z m-2059 -34 c37
-39 27 -49 -14 -14 -44 37 -50 24 -6 -15 20 -17 31 -31 26 -31 -21 0 -72 57
-65 73 9 25 27 21 59 -13z m-36 -49 c18 -16 32 -34 30 -40 -4 -10 -79 51 -79
64 0 12 17 3 49 -24z m97 -7 c-4 -9 -9 -15 -11 -12 -3 3 -3 13 1 22 4 9 9 15
11 12 3 -3 3 -13 -1 -22z m1729 15 c11 -17 -1 -21 -15 -4 -8 9 -8 15 -2 15 6
0 14 -5 17 -11z m52 -9 c1 -11 -2 -22 -8 -25 -10 -7 -13 28 -2 38 9 9 9 10 10
-13z m-1892 -35 c22 -19 35 -35 30 -35 -15 0 -85 49 -85 60 0 17 14 11 55 -25z
m3865 30 c0 -10 -62 -36 -78 -32 -12 3 -7 9 18 20 35 16 60 21 60 12z m10 -23
c0 -11 -69 -46 -76 -39 -3 3 11 15 33 26 45 24 43 23 43 13z m-3899 -29 c36
-26 49 -43 32 -43 -11 0 -90 70 -79 70 4 0 25 -12 47 -27z m3919 2 c0 -6 -62
-45 -72 -45 -17 0 -7 16 20 32 26 17 52 23 52 13z m-3933 -31 c18 -14 33 -30
33 -37 0 -8 -3 -8 -12 1 -20 20 -32 13 -13 -8 10 -11 15 -20 11 -20 -13 0 -76
52 -76 63 0 5 9 2 20 -8 11 -10 23 -15 26 -12 4 4 -4 15 -17 26 -35 30 -12 25
28 -5z m3260 -26 c-3 -8 -6 -5 -6 6 -1 11 2 17 5 13 3 -3 4 -12 1 -19z m693
14 c0 -5 -18 -16 -39 -24 -31 -13 -38 -13 -34 -2 7 19 73 42 73 26z m-3978
-42 c21 -14 38 -29 38 -33 0 -7 -58 33 -90 61 -13 11 19 -5 52 -28z m3998 12
c0 -10 -79 -36 -86 -29 -6 5 57 36 74 37 6 0 12 -4 12 -8z m-4011 -32 c32 -29
38 -57 7 -31 -8 7 -20 10 -25 6 -11 -6 -56 13 -48 22 3 2 15 0 26 -7 14 -7 21
-7 21 0 0 5 -7 10 -15 10 -8 0 -15 7 -15 15 0 22 11 18 49 -15z m3996 -10
c-34 -23 -51 -25 -61 -8 -4 6 -3 9 2 5 5 -3 20 1 34 9 39 21 59 16 25 -6z m24
-25 c-13 -7 -35 -16 -48 -20 -21 -6 -22 -5 -10 8 8 8 16 13 18 11 2 -2 13 3
24 11 11 8 25 11 30 8 5 -3 -1 -11 -14 -18z m-4037 -9 c9 0 15 -2 13 -5 -3 -2
0 -10 6 -18 9 -9 8 -13 0 -13 -6 0 -11 5 -11 11 0 5 -4 8 -8 5 -5 -3 -21 4
-38 15 -27 19 -27 20 -4 13 14 -4 33 -8 42 -8z m4069 -10 c-15 -17 -67 -37
-76 -28 -7 7 53 41 74 42 10 0 11 -3 2 -14z m-4086 -23 c19 -9 35 -20 35 -25
0 -12 -14 -10 -36 7 -10 8 -28 14 -39 14 -15 0 -11 -4 13 -15 29 -13 43 -26
25 -23 -24 4 -25 -4 -3 -16 18 -10 20 -14 8 -15 -9 0 -20 5 -23 10 -3 6 -17
10 -31 10 -13 0 -24 5 -24 10 0 6 11 8 26 4 19 -5 25 -4 20 5 -4 6 -14 11 -22
11 -16 0 -16 2 -8 24 8 20 15 20 59 -1z m4105 2 c0 -9 -77 -44 -83 -38 -4 3 8
14 26 23 32 18 57 24 57 15z m-734 -105 c3 -59 11 -99 30 -144 97 -229 98
-234 99 -346 l0 -105 -58 -118 c-32 -65 -57 -121 -55 -125 2 -4 24 -45 50 -92
47 -86 82 -178 113 -300 18 -68 19 -76 30 -150 23 -161 38 -520 24 -557 -5
-12 -8 -2 -9 27 -7 307 -12 378 -35 512 -9 51 -19 107 -22 123 -6 38 -59 205
-85 270 -11 28 -37 77 -59 111 -21 33 -39 63 -39 67 0 4 16 32 36 63 38 59 64
115 70 149 2 11 6 34 10 50 3 17 7 62 9 101 3 64 -1 77 -35 150 -48 100 -79
190 -85 252 -11 91 -11 162 -2 153 5 -5 11 -46 13 -91z m744 80 c0 -13 -58
-42 -73 -37 -7 2 6 13 28 25 48 25 45 24 45 12z m4 -44 c-11 -6 -21 -11 -24
-12 -3 0 -13 -4 -23 -9 -36 -15 -28 4 10 23 38 20 72 19 37 -2z m-4125 -21
c15 -15 14 -16 -9 -12 -43 8 -70 19 -70 29 0 14 61 1 79 -17z m4151 6 c0 -10
-80 -44 -87 -37 -3 3 12 14 33 24 46 23 54 25 54 13z m-4172 -32 c12 -5 22
-11 22 -13 0 -7 -56 10 -77 24 -15 9 -15 10 7 4 14 -4 35 -10 48 -15z m4181
-4 c-20 -20 -82 -38 -77 -23 3 7 20 17 39 24 47 17 56 17 38 -1z m-4191 -17
c6 -1 12 -7 12 -15 0 -15 -16 -17 -25 -3 -3 6 -15 10 -25 10 -10 0 -22 5 -26
11 -5 9 1 10 22 5 16 -4 35 -7 42 -8z m4207 -8 c3 -5 -8 -16 -24 -25 -35 -17
-51 -19 -51 -5 0 8 16 17 67 39 1 1 4 -3 8 -9z m-4211 -31 c19 -17 0 -16 -39
2 l-40 19 35 -6 c19 -3 39 -10 44 -15z m2100 -14 c-4 -8 -8 -15 -10 -15 -2 0
-4 7 -4 15 0 8 4 15 10 15 5 0 7 -7 4 -15z m2126 6 c0 -14 -25 -31 -58 -37
-44 -9 -41 10 6 29 44 19 52 20 52 8z m-4247 -13 c33 -16 36 -33 5 -23 -13 3
-33 9 -45 12 -13 3 -23 9 -23 14 0 13 32 11 63 -3z m867 -18 c8 0 20 -8 25
-19 6 -10 25 -46 43 -79 33 -63 39 -87 23 -96 -5 -4 -8 2 -6 11 4 26 -48 124
-87 164 -18 18 -29 31 -24 27 6 -5 17 -8 26 -8z m3390 0 c0 -5 -9 -14 -21 -20
-30 -17 -69 -22 -69 -10 0 5 8 10 18 10 9 0 28 7 42 14 14 8 26 14 28 15 1 1
2 -3 2 -9z m-4270 -15 c31 -18 16 -18 -30 0 -23 9 -28 14 -15 14 11 0 31 -6
45 -14z m2070 0 c-6 -8 -8 -20 -4 -26 4 -7 3 -9 -4 -5 -12 7 -85 -52 -77 -63
2 -4 -14 -18 -36 -31 -49 -27 -128 -105 -171 -168 -17 -26 -49 -67 -71 -92
-21 -25 -53 -72 -69 -105 -24 -46 -66 -95 -182 -208 -161 -158 -263 -236 -151
-115 169 182 241 263 247 277 3 9 34 50 67 91 33 41 59 81 56 88 -6 16 34 72
52 72 7 0 13 4 13 9 0 5 13 14 29 21 46 19 48 40 3 33 l-36 -6 18 29 c25 40
76 83 91 77 8 -2 37 14 66 37 33 26 55 37 59 30 4 -7 25 4 56 29 52 43 64 50
44 26z m-1938 -45 c34 -25 35 -27 17 -38 -16 -10 -17 -16 -9 -32 9 -17 15 -18
31 -9 13 6 19 18 17 32 -3 25 30 37 43 16 6 -11 11 -11 21 -1 9 9 9 12 -2 12
-9 0 -5 7 10 17 17 12 25 13 28 5 2 -7 15 -26 28 -41 13 -16 24 -34 24 -40 0
-15 6 -14 34 5 15 9 26 11 30 5 4 -6 14 -7 22 -4 14 5 15 3 5 -15 -15 -27 -19
-79 -10 -120 5 -24 3 -35 -7 -39 -8 -3 -12 -9 -9 -14 3 -4 11 -6 18 -4 17 7
57 -68 52 -95 -4 -19 -1 -21 17 -16 30 7 50 -11 38 -34 -7 -13 -7 -21 0 -25 6
-3 13 1 16 10 6 14 9 14 28 2 31 -20 196 -16 231 7 14 9 33 15 43 14 11 -2 16
3 14 13 -3 19 22 42 47 44 15 1 17 -11 16 -102 0 -57 -3 -103 -7 -103 -7 0
-12 15 -10 31 2 12 -76 31 -107 27 -17 -2 -31 0 -31 5 0 5 -5 7 -11 5 -6 -2
-9 -6 -7 -9 2 -3 -10 -17 -27 -31 -25 -22 -30 -34 -31 -79 -1 -29 -7 -55 -13
-57 -17 -6 -13 -20 5 -18 9 0 21 -8 28 -18 31 -52 45 -59 95 -45 53 14 81 40
105 95 l16 39 -5 -40 c-2 -22 -4 -41 -5 -42 -2 -12 -51 -53 -64 -53 -9 0 -16
-4 -16 -10 0 -5 -6 -10 -14 -10 -8 0 -16 -6 -19 -14 -3 -8 -26 -28 -50 -45
-36 -25 -46 -28 -51 -16 -8 23 -23 18 -22 -7 1 -17 -17 -32 -74 -68 -85 -52
-226 -156 -282 -206 -21 -18 -46 -51 -57 -73 -25 -47 -35 -129 -21 -165 5 -14
8 -26 6 -26 -3 0 -12 -3 -21 -7 -15 -5 -16 -1 -10 35 7 45 0 51 -31 27 -26
-20 -37 -19 -25 4 8 14 7 20 -4 25 -17 6 -29 -9 -20 -25 4 -6 -2 -13 -13 -16
-12 -3 -22 -15 -24 -27 -2 -14 -9 -3 -20 34 -31 97 -32 110 -13 110 9 0 14 4
10 10 -3 5 -12 7 -19 4 -22 -8 -32 67 -11 82 17 13 4 31 -14 19 -5 -3 -12 -1
-15 3 -9 14 23 50 47 54 27 4 36 42 11 52 -21 8 -34 -4 -37 -33 -1 -22 -26
-30 -28 -8 0 6 -3 21 -5 32 -5 23 -22 133 -28 185 -2 19 -7 44 -12 54 -6 16
-4 18 9 13 11 -4 17 -1 17 8 0 8 -6 12 -13 9 -7 -2 -13 4 -14 16 -2 23 19 26
40 5 17 -16 28 -10 20 11 -3 8 -17 14 -32 14 -31 0 -30 -2 -34 95 -2 50 1 75
12 88 8 9 10 17 3 17 -13 0 -12 102 2 112 5 3 20 2 34 -3 18 -7 23 -6 20 3 -3
7 -11 13 -19 13 -29 0 -40 23 -34 67 4 24 11 44 16 46 5 2 5 11 -1 22 -8 15
-6 21 10 30 14 7 20 7 21 0 1 -5 2 -16 3 -22 1 -7 8 -12 15 -10 9 2 11 -3 7
-13 -9 -25 17 -12 30 14 8 16 13 19 17 9 4 -9 6 -8 6 4 1 11 6 15 15 12 8 -3
17 -1 20 5 4 6 -9 13 -29 17 -35 6 -36 7 -20 31 l16 24 -40 -21 c-23 -11 -41
-18 -41 -14 0 4 -7 1 -16 -7 -13 -11 -14 -9 -8 16 4 15 8 35 9 44 2 26 17 75
29 96 10 20 12 26 15 45 1 13 28 2 73 -30z m-137 20 c4 -7 -5 -9 -26 -5 -44 8
-50 15 -11 15 17 0 34 -5 37 -10z m4290 1 c-14 -12 -85 -34 -92 -28 -3 4 10
13 28 21 38 16 78 21 64 7z m-4297 -26 c23 -7 22 -25 -1 -21 -43 9 -66 19 -61
27 3 6 13 8 22 5 10 -2 27 -7 40 -11z m4287 -4 c-6 -5 -23 -12 -40 -15 l-30
-6 30 14 c35 18 54 20 40 7z m-4280 -43 c6 -7 -6 -8 -35 -3 -51 8 -54 10 -46
24 7 11 63 -4 81 -21z m4298 21 c-18 -16 -83 -37 -88 -28 -4 5 2 12 12 15 10
3 27 9 38 13 25 10 48 10 38 0z m-2263 -3 c0 -2 -7 -7 -16 -10 -8 -3 -12 -2
-9 4 6 10 25 14 25 6z m2275 -25 c8 -13 -5 -19 -56 -26 l-44 -6 40 20 c47 23
52 24 60 12z m-4327 -13 c6 -1 12 -6 12 -11 0 -12 -69 -2 -83 12 -7 7 1 9 24
5 19 -3 40 -6 47 -6z m4175 -67 c-15 -15 -66 -58 -113 -96 -47 -39 -91 -75
-98 -82 -7 -7 -17 -13 -21 -13 -5 0 -19 -10 -33 -22 -13 -13 -50 -40 -81 -61
-50 -33 -57 -35 -57 -18 0 13 11 23 33 30 17 6 46 24 63 39 17 15 82 70 145
122 62 52 129 109 148 127 28 24 37 28 39 16 2 -8 -9 -27 -25 -42z m-4193 33
l25 -15 -25 5 c-14 3 -33 6 -42 6 -10 0 -18 5 -18 10 0 15 31 12 60 -6z m4360
2 c0 -8 -4 -18 -10 -21 -5 -3 -10 -1 -10 4 0 18 -24 12 -37 -8 -12 -18 -53
-36 -53 -22 0 4 12 13 27 20 20 9 24 14 13 21 -10 6 -7 9 11 13 46 8 59 7 59
-7z m-4341 -32 c1 -1 0 -7 -3 -12 -7 -12 -86 6 -86 19 0 8 78 2 89 -7z m1026
-23 c7 -22 -31 -105 -44 -97 -11 7 -2 86 13 102 16 18 24 17 31 -5z m-1062 -6
c31 -8 37 -25 8 -25 -28 0 -71 18 -71 29 0 10 11 9 63 -4z m4383 -4 c-3 -4
-24 -8 -48 -10 -49 -2 -43 15 7 21 33 4 48 0 41 -11z m-4386 -36 c37 -14 22
-19 -29 -9 -17 4 -31 10 -31 15 0 12 18 10 60 -6z m4397 9 c-4 -4 -28 -9 -54
-11 -30 -3 -43 -1 -35 5 15 10 99 15 89 6z m-4387 -46 c11 -6 6 -8 -17 -5 -18
2 -33 0 -33 -5 0 -4 8 -8 18 -8 9 0 24 -5 32 -10 11 -8 8 -9 -15 -6 -16 2 -38
5 -49 5 -14 1 -16 4 -7 14 8 10 7 17 -2 26 -10 11 -5 12 23 6 19 -4 42 -12 50
-17z m4330 14 c0 -5 -7 -9 -15 -9 -8 0 -12 4 -9 9 3 4 9 8 15 8 5 0 9 -4 9 -8z
m58 3 c-10 -11 -48 -14 -48 -4 0 5 12 9 27 9 14 0 24 -2 21 -5z m-3 -35 c-28
-12 -73 -12 -80 0 -4 6 14 10 47 9 39 0 48 -3 33 -9z m15 -23 c0 -8 -15 -13
-45 -14 -25 -1 -43 2 -40 7 3 4 16 7 29 6 14 -2 30 1 38 5 17 11 18 11 18 -4z
m-4407 -14 c22 -13 1 -19 -38 -10 -24 6 -42 14 -39 19 5 8 58 2 77 -9z m1001
-8 c-6 -16 -24 -21 -24 -7 0 11 11 22 21 22 5 0 6 -7 3 -15z m-1022 -22 c39
-8 24 -24 -15 -17 -50 9 -59 13 -52 25 4 6 14 7 24 4 9 -4 28 -9 43 -12z
m4438 7 c0 -11 -1 -12 -57 -15 -40 -3 -58 8 -30 18 25 8 87 6 87 -3z m-4433
-44 c23 -4 27 -16 6 -16 -38 0 -83 12 -77 21 3 5 17 7 32 4 15 -4 32 -7 39 -9z
m4428 4 c-7 -12 -65 -10 -65 2 0 4 16 8 36 8 21 0 33 -4 29 -10z m-4442 -39
c4 -1 14 -1 22 -1 8 0 15 -4 15 -10 0 -9 -90 -4 -100 6 -9 10 25 22 39 14 9
-4 19 -8 24 -9z m4447 10 c0 -15 -70 -18 -82 -4 -8 10 -1 13 36 13 25 0 46 -4
46 -9z m0 -33 c0 -5 -19 -8 -42 -7 -26 0 -36 3 -26 7 23 9 68 9 68 0z m-4422
-13 c6 -3 12 -9 12 -14 0 -6 -6 -8 -13 -5 -7 2 -31 6 -52 7 -21 1 -40 8 -42
14 -3 9 7 11 39 7 24 -3 49 -7 56 -9z m4266 -71 c-76 -70 -89 -71 -21 -1 34
34 64 58 66 54 2 -5 -19 -29 -45 -53z m162 53 c4 -4 3 -7 -2 -7 -5 -1 -26 -3
-46 -6 -23 -3 -38 -2 -38 5 0 15 72 22 86 8z m-4428 -16 c1 -1 2 -5 2 -10 0
-9 -89 4 -99 15 -4 5 75 0 97 -5z m1278 -28 c-11 -11 -19 6 -11 24 8 17 8 17
12 0 3 -10 2 -21 -1 -24z m3152 11 c-3 -19 -53 -28 -77 -14 -16 9 -17 8 54 23
11 3 21 5 23 6 2 0 2 -6 0 -15z m-4430 -13 c1 -1 2 -5 2 -10 0 -5 -8 -8 -17
-6 -10 2 -33 4 -50 4 -18 1 -33 6 -33 12 0 9 62 8 98 0z m-8 -30 c13 -1 13 -3
-1 -11 -8 -5 -24 -7 -35 -5 -10 2 -27 4 -36 4 -10 1 -18 5 -18 9 0 8 21 8 90
3z m4440 1 c0 -12 -68 -13 -75 -2 -4 6 11 10 34 10 23 0 41 -4 41 -8z m-4443
-35 c7 0 13 -5 13 -10 0 -5 -14 -7 -31 -3 -17 3 -41 6 -53 6 -17 0 -18 2 -6
10 8 5 26 6 40 3 13 -4 30 -6 37 -6z m4440 -3 c4 -12 -20 -15 -55 -8 -13 2
-20 8 -18 13 8 12 69 8 73 -5z m-4433 -34 c6 -6 -1 -7 -20 -2 -16 4 -39 7 -51
6 -12 -1 -20 2 -18 7 7 10 77 1 89 -11z m4442 -1 c3 -5 -13 -9 -35 -9 -22 0
-42 4 -45 9 -3 4 13 8 35 8 22 0 42 -4 45 -8z m-4446 -19 c11 -7 0 -10 -37
-10 -29 0 -53 5 -53 10 0 13 70 13 90 0z m4110 -5 c0 -8 -219 -148 -263 -169
-36 -16 -57 -15 -57 5 0 5 9 9 21 9 11 0 33 8 47 19 15 10 63 38 107 62 44 23
94 50 110 60 35 21 35 21 35 14z m330 -4 c17 -5 -26 -17 -47 -13 -15 3 -20 7
-13 12 10 6 41 7 60 1z m-4500 -21 c0 -5 -7 -7 -15 -4 -8 4 -15 8 -15 10 0 2
7 4 15 4 8 0 15 -4 15 -10z m68 1 c6 -1 12 -5 12 -10 0 -6 -12 -6 -29 -1 -16
4 -32 6 -35 2 -3 -3 -6 0 -6 6 0 7 10 10 23 8 12 -3 28 -5 35 -5z m4327 -11
c15 -24 -129 -133 -247 -188 -36 -17 -96 -49 -132 -71 -80 -49 -111 -59 -119
-36 -5 11 2 19 21 26 138 56 371 191 433 253 27 27 35 30 44 16z m110 -10 c4
-6 -10 -10 -34 -10 -52 0 -62 16 -11 18 21 1 42 -3 45 -8z m-4445 -8 c0 -10
-88 -8 -97 2 -4 3 17 6 45 6 29 0 52 -4 52 -8z m-27 -23 c26 -1 44 -6 41 -11
-3 -5 -19 -7 -35 -4 -42 6 -49 -21 -9 -37 8 -4 0 -5 -18 -2 -19 2 -37 7 -40
11 -4 4 1 4 10 1 12 -4 16 -1 15 14 -1 11 -9 19 -20 19 -10 0 -15 5 -12 10 4
6 10 8 15 5 4 -2 28 -6 53 -6z m4464 -6 c4 -11 -11 -12 -59 -4 -5 0 -8 6 -8
12 0 14 62 7 67 -8z m-4423 -32 c3 -4 -6 -6 -19 -3 -14 2 -25 6 -25 8 0 8 39
4 44 -5z m4416 -1 c-20 -13 -60 -13 -60 0 0 6 17 10 38 10 27 0 33 -3 22 -10z
m10 -31 c0 -6 -14 -9 -36 -6 -51 7 -54 17 -6 17 24 0 42 -5 42 -11z m-4435 -9
c14 -6 2 -8 -37 -7 -32 0 -58 5 -58 9 0 10 69 9 95 -2z m4431 -23 c5 -4 -9 -7
-30 -5 -20 1 -39 5 -41 9 -6 9 62 6 71 -4z m-4420 -8 c2 -4 -18 -7 -46 -7 -28
1 -53 5 -56 10 -3 5 17 8 46 7 28 -2 53 -6 56 -10z m4414 -18 c0 -10 -56 -9
-66 2 -4 4 9 7 29 7 21 0 37 -4 37 -9z m-4420 -12 c11 -7 4 -8 -24 -4 -22 3
-42 8 -45 10 -9 10 54 4 69 -6z m4311 -27 c-6 -2 -40 -23 -75 -47 -64 -45
-315 -170 -351 -177 -13 -2 -20 3 -20 12 0 8 9 16 19 18 11 2 55 24 99 48 44
24 81 44 83 44 17 0 214 104 229 121 19 20 20 20 24 3 2 -10 -2 -20 -8 -22z
m-4308 6 c9 0 15 -4 11 -9 -3 -5 -18 -7 -32 -5 -15 2 -40 5 -55 5 -16 1 -26 5
-22 11 3 5 22 7 43 3 20 -3 45 -6 55 -5z m4405 5 c-10 -2 -26 -2 -35 0 -10 3
-2 5 17 5 19 0 27 -2 18 -5z m-38 -23 c0 -5 -2 -10 -4 -10 -3 0 -8 5 -11 10
-3 6 -1 10 4 10 6 0 11 -4 11 -10z m50 0 c0 -5 -4 -10 -10 -10 -5 0 -10 5 -10
10 0 6 5 10 10 10 6 0 10 -4 10 -10z m-4460 -9 c0 -4 -11 -6 -25 -3 -14 2 -25
6 -25 8 0 2 11 4 25 4 14 0 25 -4 25 -9z m23 -22 c25 -2 44 -6 42 -9 -2 -3
-19 -5 -37 -4 -18 1 -43 2 -56 3 -13 0 -20 6 -17 11 4 6 10 8 14 6 4 -3 28 -6
54 -7z m4427 -7 c0 -5 -13 -7 -30 -4 -16 2 -30 6 -30 8 0 2 14 4 30 4 17 0 30
-4 30 -8z m-4470 -22 c0 -5 -4 -10 -10 -10 -5 0 -10 5 -10 10 0 6 5 10 10 10
6 0 10 -4 10 -10z m3877 -41 c8 -24 16 -57 19 -73 3 -16 7 -33 10 -38 3 -4 3
-8 -1 -8 -7 0 -22 37 -45 113 -12 38 -15 57 -7 54 6 -2 17 -23 24 -48z m571
45 c12 -4 22 -13 22 -21 0 -8 -8 -13 -22 -11 -31 5 -50 17 -43 29 7 11 12 11
43 3z m-4375 -11 c-13 -2 -33 -2 -45 0 -13 2 -3 4 22 4 25 0 35 -2 23 -4z m24
-27 c3 -3 -19 -6 -50 -6 -31 0 -59 4 -62 10 -7 11 101 7 112 -4z m4361 -24 c2
-7 -3 -11 -15 -9 -28 6 -53 18 -53 27 0 12 63 -4 68 -18z m-4418 0 c0 -4 -9
-8 -20 -9 -11 -1 -20 2 -20 8 0 5 9 9 20 9 11 0 20 -4 20 -8z m44 0 c2 -4 -4
-9 -15 -9 -10 -1 -19 2 -19 8 0 11 27 12 34 1z m4321 -22 c-3 -5 3 -10 14 -10
23 0 37 -16 19 -23 -10 -3 -10 -7 1 -20 9 -12 10 -17 2 -17 -6 0 -14 7 -17 15
-5 12 -10 13 -20 4 -8 -6 -11 -16 -7 -22 3 -6 1 -7 -6 -3 -8 6 -9 12 -2 20 7
9 7 16 0 23 -7 7 -2 9 18 7 l28 -4 -29 11 c-21 9 -25 14 -15 20 18 11 22 11
14 -1z m-4299 -8 c-7 -12 -106 -12 -106 -1 0 5 25 9 56 9 30 0 53 -4 50 -8z
m4219 -29 c-30 -29 -100 -62 -234 -108 -142 -50 -151 -52 -151 -30 0 9 9 15
21 15 50 0 294 99 349 142 29 23 41 7 15 -19z m-4252 0 c-13 -2 -35 -2 -50 0
-16 2 -5 4 22 4 28 0 40 -2 28 -4z m38 -24 c17 -10 9 -12 -53 -13 -32 -1 -48
3 -48 11 0 14 80 16 101 2z m-45 -32 c4 -4 -4 -6 -19 -5 -14 1 -24 5 -21 9 5
9 31 6 40 -4z m4367 -6 c9 -10 5 -11 -18 -5 -48 11 -63 22 -26 19 17 -1 38 -8
44 -14z m-510 -97 c4 -38 2 -76 -3 -84 -7 -11 -10 -4 -11 25 0 22 -2 69 -4
105 -4 85 11 47 18 -46z m-3814 82 c-10 -8 -89 -13 -89 -5 0 5 21 9 47 9 25 0
44 -2 42 -4z m4313 -28 c-4 -16 -7 -16 -40 -2 -51 21 -52 25 -1 22 38 -3 45
-6 41 -20z m-4293 -12 c14 -14 14 -18 1 -26 -8 -5 -18 -6 -24 -3 -5 3 -6 1 -3
-5 4 -5 17 -8 28 -5 16 4 20 2 17 -8 -3 -8 -17 -14 -31 -14 -46 -1 -42 -15 4
-16 41 -1 42 -2 14 -9 l-30 -8 27 -1 c15 0 30 -5 33 -11 4 -6 -17 -10 -54 -10
-34 0 -61 4 -61 9 0 5 11 8 25 6 14 -1 25 2 25 6 0 5 -15 9 -32 10 -27 0 -30
2 -13 9 19 8 19 8 -5 18 -19 8 -21 11 -7 13 32 3 35 4 41 10 4 3 -4 6 -16 5
-13 -1 -25 3 -28 9 -3 6 14 10 42 9 26 0 44 4 41 8 -2 5 -18 7 -34 4 -16 -2
-39 -2 -51 2 -21 5 -21 6 -2 12 30 11 74 4 93 -14z m809 -33 c34 -14 67 -34
73 -45 6 -11 11 -44 11 -74 1 -41 -5 -62 -24 -91 -41 -61 -86 -100 -151 -133
l-62 -31 -64 66 c-38 40 -65 77 -67 92 -2 18 1 23 12 19 16 -6 44 3 44 14 0 5
-13 11 -30 15 -45 10 -80 42 -80 74 0 65 149 140 245 124 17 -3 58 -17 93 -30z
m3467 -4 c13 -13 -3 -10 -45 7 l-35 14 35 -6 c19 -3 39 -10 45 -15z m-28 -14
c20 -8 33 -18 30 -22 -9 -8 -87 18 -87 29 0 12 16 10 57 -7z m-99 -27 c-13
-39 -250 -143 -308 -136 -22 3 -20 5 15 16 22 8 47 16 55 19 8 4 17 7 20 8 47
16 190 87 196 97 8 13 26 9 22 -4z m101 -10 c13 -5 21 -11 17 -15 -8 -8 -86
18 -86 29 0 9 18 5 69 -14z m6 -40 c6 -7 -2 -8 -25 -3 -41 9 -50 13 -50 25 0
10 60 -8 75 -22z m-4215 -7 c0 -4 -6 -8 -12 -8 -7 0 -17 -2 -23 -3 -5 -1 -27
-2 -47 -1 -62 2 -43 17 22 19 33 0 60 -3 60 -7z m4173 -10 c4 -1 14 -1 22 -1
8 0 15 -5 15 -11 0 -11 -63 -5 -83 8 -15 9 4 23 21 14 9 -5 20 -9 25 -10z
m-4163 -22 c0 -5 -7 -9 -15 -9 -8 0 -15 -5 -15 -11 0 -5 4 -8 8 -5 4 2 14 1
22 -4 11 -7 5 -9 -20 -8 -19 0 -44 -2 -55 -5 -15 -5 -23 0 -31 18 -7 13 -10
26 -8 28 8 8 114 4 114 -4z m4183 -16 c4 -2 7 -8 7 -13 0 -10 -60 8 -75 22
-10 10 50 2 68 -9z m-423 -45 c0 -45 -15 -32 -17 14 -1 29 1 38 7 28 6 -8 10
-27 10 -42z m370 27 c20 -3 50 -18 50 -26 0 -12 -3 -12 -50 7 -22 9 -37 20
-34 25 3 5 11 6 17 2 7 -4 14 -8 17 -8z m-4056 -20 c-4 -8 -10 -12 -15 -9 -11
6 -2 24 11 24 5 0 7 -7 4 -15z m-49 -5 c4 -6 -6 -10 -25 -10 -25 0 -31 -4 -26
-15 3 -8 1 -15 -4 -15 -6 0 -10 7 -10 15 0 9 -10 15 -26 15 -14 0 -23 4 -20 8
7 13 103 14 111 2z m4110 -10 c23 -11 32 -19 22 -19 -18 -1 -77 25 -77 34 0 8
13 4 55 -15z m-4185 -20 c0 -4 -7 -7 -15 -6 -23 3 -26 12 -5 13 11 1 20 -2 20
-7z m80 6 c0 -9 -40 -13 -46 -5 -3 5 6 9 20 9 14 0 26 -2 26 -4z m4100 -17
c26 -15 29 -18 10 -13 -14 3 -30 11 -37 16 -7 5 -14 5 -17 -1 -4 -5 9 -15 28
-22 19 -7 33 -16 30 -21 -3 -4 -19 -2 -37 5 -21 9 -32 21 -33 35 -2 27 11 27
56 1z m-4030 7 c0 -2 3 -11 6 -20 4 -11 1 -16 -10 -16 -9 0 -16 2 -16 4 0 2
-3 11 -6 20 -4 11 -1 16 10 16 9 0 16 -2 16 -4z m126 -13 c7 -10 14 -25 14
-34 0 -14 -6 -16 -37 -8 -21 4 -39 8 -40 9 -2 0 -8 0 -14 0 -5 0 -7 5 -4 10 3
6 17 7 31 4 22 -6 29 2 25 29 -2 13 11 7 25 -10z m-181 -3 c6 -1 -1 -6 -14
-11 -14 -5 -31 -7 -38 -5 -7 3 -13 1 -13 -4 0 -5 8 -11 18 -13 9 -3 -1 -5 -23
-5 -28 0 -34 2 -21 7 19 7 18 8 -5 15 -24 8 -24 8 6 15 26 6 58 7 90 1z m145
6 c0 -11 -19 -15 -25 -6 -3 5 1 10 9 10 9 0 16 -2 16 -4z m3567 -43 c-3 -10
-5 -2 -5 17 0 19 2 27 5 18 2 -10 2 -26 0 -35z m-3712 7 c-3 -5 -11 -10 -16
-10 -6 0 -7 5 -4 10 3 6 11 10 16 10 6 0 7 -4 4 -10z m4091 -28 c-8 -7 -86 19
-86 29 0 4 20 1 46 -8 25 -8 43 -18 40 -21z m-4071 -3 c-4 -5 -31 -9 -62 -9
-66 0 -63 12 5 20 51 7 66 4 57 -11z m3935 -4 c0 -18 -56 -35 -147 -42 -60 -5
-73 -3 -73 9 0 11 14 15 58 16 44 0 134 18 160 31 1 0 2 -6 2 -14z m108 -6
c13 -5 21 -13 17 -19 -7 -11 -52 6 -75 28 -13 12 -12 13 10 7 14 -4 35 -12 48
-16z m-4025 -23 c3 -8 1 -17 -6 -20 -7 -2 -4 -5 6 -5 27 -1 20 -21 -8 -21 -14
0 -25 -4 -25 -9 0 -4 11 -6 25 -3 15 2 25 0 25 -7 0 -7 4 -10 9 -6 5 3 12 1
16 -5 3 -5 -3 -10 -14 -10 -27 0 -25 0 -61 -10 -16 -5 -30 -5 -30 -1 0 4 17
12 38 18 l37 11 -45 -2 c-25 -2 -37 -1 -27 1 9 2 17 9 17 14 0 6 -4 7 -10 4
-5 -3 -18 -1 -27 4 -15 9 -14 11 12 12 17 1 33 1 38 0 4 0 7 3 7 8 0 5 -18 7
-40 4 -25 -4 -40 -2 -40 5 0 6 8 10 18 8 9 -1 31 1 47 4 25 6 22 7 -18 7 -26
0 -51 3 -54 7 -4 3 19 6 49 6 39 0 57 -4 61 -14z m3993 -1 c20 -8 33 -19 30
-24 -6 -9 -75 19 -76 32 0 10 6 9 46 -8z m-9 -30 c20 -8 34 -17 31 -20 -9 -10
-67 7 -72 21 -7 18 -4 17 41 -1z m-12 -31 c20 -8 35 -18 32 -21 -8 -8 -77 17
-77 28 0 12 1 12 45 -7z m-2508 -64 c26 -18 53 -34 58 -35 15 0 82 -55 70 -56
-5 0 -19 -2 -30 -4 -11 -2 -54 -7 -95 -10 -41 -3 -100 -8 -130 -10 -30 -3 -60
-2 -65 2 -12 10 -65 87 -65 95 0 3 24 12 52 19 29 6 65 20 81 29 35 22 60 16
124 -30z m2500 35 c20 -8 34 -18 31 -21 -7 -6 -78 22 -78 30 0 9 7 7 47 -9z
m-3902 -15 c8 -13 -10 -19 -62 -23 -54 -3 -62 17 -9 21 22 1 42 5 45 7 7 8 19
6 26 -5z m205 -11 c0 -9 -17 -11 -75 -11 -71 0 -95 3 -95 12 0 5 33 10 73 12
78 3 97 1 97 -13z m3689 -3 c13 -7 20 -16 15 -19 -5 -3 -25 3 -44 14 -26 13
-30 18 -15 18 11 0 31 -6 44 -13z m-3923 -34 c-35 -10 -51 -11 -59 -3 -8 8 -6
11 9 12 39 2 64 6 70 12 4 4 12 3 18 0 6 -4 -11 -13 -38 -21z m3651 13 c0 -8
-4 -15 -9 -15 -4 0 -8 7 -8 15 0 8 4 15 8 15 5 0 9 -7 9 -15z m150 0 c-5 -14
-81 -29 -111 -21 -14 3 -26 13 -26 20 0 11 17 13 70 12 42 0 69 -5 67 -11z
m101 -2 c12 -3 22 -11 22 -18 0 -11 -8 -11 -37 -3 -48 13 -55 17 -47 29 3 6
13 7 23 3 9 -3 26 -9 39 -11z m-3269 -3 c28 -5 75 -12 104 -15 28 -3 70 -8 92
-11 22 -3 78 -6 124 -7 l84 -2 18 -34 c10 -19 16 -38 14 -42 -3 -4 -49 -5
-103 -3 -53 3 -106 4 -117 4 -67 -5 -130 3 -213 26 -41 11 -57 22 -72 47 -11
18 -20 35 -20 40 0 10 27 9 89 -3z m535 -36 c41 -48 51 -74 28 -75 -9 0 -30
-2 -45 -3 -15 -1 -31 1 -35 4 -13 9 -52 67 -52 78 0 7 30 21 69 31 2 1 18 -15
35 -35z m-1109 17 c-6 -6 -35 -12 -65 -15 l-55 -5 50 13 c62 17 82 19 70 7z
m3589 -29 c-3 -9 2 -44 10 -77 9 -34 12 -63 7 -68 -5 -5 -13 19 -20 55 -13 78
-14 121 -2 114 5 -3 7 -14 5 -24z m259 9 c5 -5 4 -12 -1 -15 -6 -3 -13 -2 -17
4 -3 5 -19 10 -35 10 -16 0 -32 5 -36 12 -8 13 75 3 89 -11z m-3853 -24 c17
-3 14 -4 -8 -3 -42 3 -36 -17 7 -20 19 -2 38 -7 44 -13 7 -7 2 -8 -13 -4 -16
4 -21 3 -16 -5 4 -7 2 -12 -3 -12 -6 0 -11 4 -11 9 0 5 -10 11 -22 14 -22 6
-22 5 -4 -8 18 -14 18 -14 -1 -12 -13 1 -20 8 -19 21 1 13 -7 22 -24 27 l-25
7 28 1 c15 1 27 7 27 14 0 9 2 9 8 0 4 -6 18 -13 32 -16z m7 17 c-3 -3 -12 -4
-19 -1 -8 3 -5 6 6 6 11 1 17 -2 13 -5z m3827 -25 c5 -5 -5 -4 -24 1 -18 5
-35 12 -39 16 -9 9 53 -7 63 -17z m-14 -21 c11 -6 6 -7 -15 -3 -48 9 -54 11
-62 19 -10 11 57 -3 77 -16z m-3560 -3 c0 -9 -9 -15 -23 -15 -13 0 -27 -3 -31
-7 -11 -11 -115 -13 -122 -2 -3 5 -2 9 3 10 4 0 31 2 60 4 29 2 60 8 70 14 26
15 43 13 43 -4z m3547 -25 c17 -11 17 -11 0 -6 -10 3 -24 6 -31 6 -7 0 -21 7
-32 15 -17 13 -17 14 13 6 17 -5 40 -14 50 -21z m-18 -27 c4 -3 -3 -3 -14 2
-11 4 -30 10 -42 12 -13 3 -23 9 -23 14 0 9 68 -15 79 -28z m-2449 21 c0 -3
-15 -25 -34 -50 l-35 -45 -20 40 c-26 50 -26 53 2 46 12 -3 34 -2 47 4 30 12
40 13 40 5z m-1267 -21 c4 -2 7 -9 7 -14 0 -6 -3 -8 -8 -5 -4 2 -28 7 -52 11
-72 11 -84 26 -15 19 33 -3 63 -8 68 -11z m3393 -29 c3 -21 7 -41 9 -44 2 -3
6 -26 10 -50 6 -47 7 -53 24 -160 6 -36 11 -71 11 -79 0 -22 -13 -4 -16 21 -1
13 -11 64 -22 113 -12 50 -24 126 -27 170 -7 82 0 100 11 29z m-2243 -10 c15
-25 27 -51 27 -59 0 -8 -16 -44 -35 -82 -19 -37 -35 -74 -35 -81 0 -20 -17 -5
-23 20 -3 13 -19 59 -37 103 -41 104 -49 132 -42 139 3 3 30 6 61 6 56 -1 56
-1 84 -46z m2517 36 c8 -5 11 -10 5 -10 -5 0 -17 5 -25 10 -8 5 -10 10 -5 10
6 0 17 -5 25 -10z m-3686 -25 c71 -11 71 -29 0 -20 -32 4 -62 9 -66 12 -14 8
-8 25 6 20 7 -3 34 -9 60 -12z m3701 -5 c23 -6 25 -8 9 -9 -12 -1 -37 6 -55
15 -34 15 -26 14 46 -6z m-15 -23 c16 -6 20 -11 12 -14 -8 -3 -19 0 -25 6 -6
6 -19 11 -28 11 -10 0 -21 5 -25 11 -7 11 13 7 66 -14z m-3670 -11 c62 -5 60
-5 60 -15 0 -5 -17 -7 -37 -5 -21 2 -49 5 -62 7 -13 1 -26 8 -29 15 -2 7 2 10
10 7 7 -3 34 -7 58 -9z m3645 -11 c39 -17 11 -18 -35 0 -23 9 -28 14 -15 14
11 0 34 -6 50 -14z m-3389 -10 c-31 -24 -127 -48 -139 -36 -8 8 -7 11 4 12 54
4 83 11 107 24 35 18 53 19 28 0z m3392 -24 c-13 -4 -88 20 -88 29 0 4 22 -1
49 -9 27 -9 45 -18 39 -20z m-3570 4 c6 -3 12 -9 12 -14 0 -10 -103 -6 -120 4
-24 15 -6 22 43 18 28 -3 58 -6 65 -8z m3512 -10 c14 -8 21 -14 15 -14 -5 0
-21 6 -35 14 -14 8 -20 14 -15 14 6 0 21 -6 35 -14z m-3080 -21 c0 -2 -11 -3
-24 -2 -14 1 -23 5 -20 9 4 7 44 0 44 -7z m3125 6 c3 -5 1 -10 -4 -10 -6 0
-11 5 -11 10 0 6 2 10 4 10 3 0 8 -4 11 -10z m-3537 -16 c12 -2 22 -9 22 -14
0 -5 -6 -7 -14 -4 -8 3 -34 7 -58 9 -58 4 -58 4 -58 14 0 8 60 6 108 -5z m511
6 c-11 -7 -80 -2 -88 6 -3 3 19 4 48 3 28 -1 47 -5 40 -9z m2967 -5 c-3 -9 0
-15 9 -15 7 0 17 -4 20 -10 4 -6 -2 -7 -16 -2 -22 9 -36 42 -17 42 6 0 8 -7 4
-15z m-2891 -5 c3 -6 -1 -7 -9 -4 -18 7 -21 14 -7 14 6 0 13 -4 16 -10z m-256
-16 c-20 -25 -161 -104 -184 -104 -17 1 -16 3 7 15 14 8 55 35 90 59 64 45
114 62 87 30z m401 -10 c6 -15 19 -39 30 -55 l20 -27 -32 -23 c-32 -22 -32
-22 -14 -1 12 14 16 27 11 39 -5 10 -9 20 -10 23 -9 33 -19 49 -38 58 l-22 11
23 0 c15 1 26 -7 32 -25z m-180 9 c0 -11 -35 -37 -107 -82 -91 -56 -123 -73
-123 -67 0 7 128 86 140 86 5 0 10 4 10 8 0 5 11 15 25 22 14 7 25 19 25 25 0
6 7 12 15 12 8 0 15 -2 15 -4z m-526 -16 c11 -2 22 -10 24 -17 3 -7 0 -10 -5
-7 -6 4 -35 9 -64 13 -30 3 -58 10 -64 16 -9 8 57 6 109 -5z m3471 -15 c-3 -3
-11 0 -18 7 -9 10 -8 11 6 5 10 -3 15 -9 12 -12z m-2379 -48 c11 -45 -2 -47
-34 -4 -17 24 -29 47 -26 51 8 14 54 -22 60 -47z m-1151 36 c3 -5 -1 -10 -9
-10 -9 0 -16 5 -16 10 0 6 4 10 9 10 6 0 13 -4 16 -10z m93 -10 c1 0 2 -8 2
-17 0 -11 -3 -14 -8 -7 -10 16 -52 28 -52 15 0 -6 5 -11 12 -11 6 0 9 -2 7 -5
-3 -2 -18 0 -35 4 -16 6 -21 10 -11 10 11 1 15 6 11 12 -6 10 5 10 74 -1z m-4
-49 c5 -2 13 3 17 11 7 10 9 10 9 1 0 -7 6 -13 14 -13 8 0 18 -5 21 -10 5 -7
-13 -9 -52 -6 -32 3 -63 5 -69 5 -7 1 -14 7 -17 14 -4 11 3 13 31 7 21 -3 41
-8 46 -9z m877 -80 c-56 -54 -191 -139 -296 -187 -40 -18 -114 -65 -147 -94
-9 -8 -32 -23 -50 -33 l-33 -19 35 32 c40 35 35 31 115 85 90 60 96 64 150 90
90 43 179 108 239 173 19 21 33 29 39 23 7 -7 -12 -31 -52 -70z m-836 44 c27
-2 53 -10 59 -16 8 -8 -5 -10 -49 -6 -73 7 -102 16 -84 28 7 4 16 6 20 4 3 -3
28 -7 54 -10z m25 -39 c19 -3 41 -5 48 -5 6 -1 12 -6 12 -11 0 -16 -112 -1
-130 16 -13 14 -12 15 10 10 14 -4 41 -8 60 -10z m170 11 c0 -2 -13 -13 -30
-25 -16 -13 -30 -19 -30 -15 0 5 12 16 28 25 28 18 32 20 32 15z m-144 -48
c21 -1 47 -3 57 -6 26 -7 21 -23 -5 -17 -13 3 -41 7 -63 8 -21 2 -41 9 -43 16
-3 7 0 10 5 7 5 -3 27 -7 49 -8z m97 -50 c16 -7 9 -8 -28 -3 -27 4 -58 7 -67
6 -10 0 -21 4 -24 10 -8 13 83 3 119 -13z m0 -25 c26 -3 47 -10 47 -14 0 -5
-8 -7 -17 -5 -10 2 -39 7 -65 10 -27 3 -48 11 -48 16 0 6 8 8 18 5 9 -3 38 -8
65 -12z m80 -44 c11 -10 -94 0 -113 11 -9 5 10 6 45 3 33 -3 64 -9 68 -14z
m22 -31 c6 -7 -8 -8 -40 -5 -61 5 -57 4 -51 15 7 11 77 3 91 -10z m-35 -29 c0
-5 -4 -10 -9 -10 -6 0 -13 5 -16 10 -3 6 1 10 9 10 9 0 16 -4 16 -10z"/>
<path d="M3445 4469 c-11 -17 1 -21 15 -4 8 9 8 15 2 15 -6 0 -14 -5 -17 -11z"/>
<path d="M4051 3874 c-28 -29 -17 -50 19 -39 16 5 19 10 10 15 -7 4 -9 16 -5
29 8 27 5 26 -24 -5z"/>
<path d="M4096 3881 c-4 -5 -2 -12 3 -15 5 -4 12 -2 15 3 4 5 2 12 -3 15 -5 4
-12 2 -15 -3z"/>
<path d="M3998 3863 c-10 -2 -18 -9 -18 -14 0 -14 16 -11 30 6 7 8 11 14 9 14
-2 -1 -12 -3 -21 -6z"/>
<path d="M4023 3805 c-8 -9 -9 -16 -3 -20 6 -3 10 0 10 7 0 8 5 6 11 -4 5 -10
18 -18 27 -18 10 0 29 -7 42 -16 16 -10 12 -4 -9 15 -18 17 -39 31 -47 31 -7
0 -14 4 -16 9 -1 5 -9 3 -15 -4z"/>
<path d="M3970 3753 c0 -4 7 -17 16 -28 14 -19 14 -19 11 5 -3 22 -27 43 -27
23z"/>
<path d="M4164 3729 c-11 -18 11 -31 40 -23 25 6 25 7 9 20 -22 16 -40 18 -49
3z"/>
<path d="M4225 3691 c-6 -11 9 -23 19 -14 9 9 7 23 -3 23 -6 0 -12 -4 -16 -9z"/>
<path d="M4151 3673 c-12 -10 -18 -23 -13 -29 11 -17 45 -25 61 -14 12 7 13
13 3 34 -14 31 -23 32 -51 9z"/>
<path d="M4235 3659 c-11 -17 0 -20 21 -4 17 13 17 14 2 15 -9 0 -20 -5 -23
-11z"/>
<path d="M4250 3630 c0 -5 5 -10 10 -10 6 0 10 5 10 10 0 6 -4 10 -10 10 -5 0
-10 -4 -10 -10z"/>
<path d="M4230 3603 c9 -19 8 -23 -5 -23 -8 0 -15 4 -15 9 0 5 -7 12 -16 15
-13 5 -15 1 -10 -19 9 -34 -1 -49 -20 -31 -8 9 -21 13 -29 10 -23 -9 -18 -24
7 -21 17 1 24 -4 26 -20 2 -14 8 -20 18 -16 8 3 14 0 14 -6 0 -17 30 -13 36 4
4 10 13 13 25 10 21 -7 25 10 9 35 -5 9 -5 19 2 27 8 10 6 13 -7 13 -10 0 -24
8 -32 18 -13 15 -13 15 -3 -5z"/>
<path d="M4121 3601 c-10 -6 -10 -10 -1 -16 13 -8 24 -1 19 14 -3 6 -10 7 -18
2z"/>
<path d="M4297 3544 c-8 -8 1 -24 14 -24 5 0 9 7 9 15 0 15 -12 20 -23 9z"/>
<path d="M4335 3540 c3 -5 8 -10 11 -10 2 0 4 5 4 10 0 6 -5 10 -11 10 -5 0
-7 -4 -4 -10z"/>
<path d="M4322 3496 c-29 -14 -24 -38 9 -47 35 -9 52 3 47 32 -3 27 -22 32
-56 15z"/>
<path d="M4248 3488 c7 -7 12 -16 12 -20 0 -13 -48 -9 -52 4 -2 6 -10 8 -16 4
-16 -10 -15 -27 1 -25 37 5 54 -15 20 -24 -16 -4 -16 -5 -1 -6 9 0 22 -14 30
-31 7 -16 19 -30 25 -30 17 0 17 17 1 22 -21 7 34 32 74 33 21 1 41 5 45 10 5
4 0 5 -9 2 -10 -3 -20 -3 -22 2 -6 9 -43 8 -52 -2 -11 -10 -26 -8 -19 2 3 5 1
12 -5 16 -14 9 -13 42 3 48 6 3 -1 6 -17 6 -23 1 -27 -2 -18 -11z"/>
<path d="M4402 3459 c2 -6 8 -10 13 -10 5 0 11 4 13 10 2 6 -4 11 -13 11 -9 0
-15 -5 -13 -11z"/>
<path d="M4080 3422 c0 -5 7 -12 15 -16 8 -3 15 -10 15 -15 0 -6 -6 -8 -12 -6
-9 4 -13 -7 -13 -35 0 -22 4 -39 10 -37 6 2 10 14 10 26 0 12 5 25 12 29 9 6
9 13 0 32 -12 24 -37 39 -37 22z"/>
<path d="M4382 3399 c2 -7 10 -15 17 -17 8 -3 12 1 9 9 -2 7 -10 15 -17 17 -8
3 -12 -1 -9 -9z"/>
<path d="M4209 3396 c-1 -3 -2 -9 -3 -13 -1 -5 -5 -14 -9 -20 -6 -9 -2 -13 10
-13 11 0 24 -5 31 -12 8 -8 12 -8 12 -1 0 6 -7 16 -15 23 -8 7 -13 16 -10 20
3 5 1 11 -5 15 -5 3 -11 4 -11 1z"/>
<path d="M4318 3393 c7 -3 16 -2 19 1 4 3 -2 6 -13 5 -11 0 -14 -3 -6 -6z"/>
<path d="M4300 3370 c0 -5 4 -10 9 -10 6 0 13 5 16 10 3 6 -1 10 -9 10 -9 0
-16 -4 -16 -10z"/>
<path d="M4346 3371 c-4 -5 -2 -12 3 -15 5 -4 12 -2 15 3 4 5 2 12 -3 15 -5 4
-12 2 -15 -3z"/>
<path d="M4370 3339 c0 -5 5 -7 10 -4 6 3 10 8 10 11 0 2 -4 4 -10 4 -5 0 -10
-5 -10 -11z"/>
<path d="M4286 3301 c-4 -5 -2 -12 3 -15 5 -4 12 -2 15 3 4 5 2 12 -3 15 -5 4
-12 2 -15 -3z"/>
<path d="M4243 3259 c-9 -9 -8 -15 2 -25 20 -20 32 -17 30 8 -2 26 -16 33 -32
17z"/>
<path d="M4456 3191 c-4 -7 -5 -15 -2 -18 9 -9 19 4 14 18 -4 11 -6 11 -12 0z"/>
<path d="M4415 3180 c-8 -13 -1 -24 14 -19 6 3 7 10 2 18 -6 10 -10 10 -16 1z"/>
<path d="M4267 3160 c3 -11 9 -17 14 -14 14 8 10 34 -5 34 -9 0 -12 -7 -9 -20z"/>
<path d="M4150 3151 c0 -6 5 -13 10 -16 6 -3 10 1 10 9 0 9 -4 16 -10 16 -5 0
-10 -4 -10 -9z"/>
<path d="M4150 3099 c0 -5 5 -7 10 -4 6 3 10 8 10 11 0 2 -4 4 -10 4 -5 0 -10
-5 -10 -11z"/>
<path d="M4290 3040 c0 -5 4 -10 9 -10 6 0 13 5 16 10 3 6 -1 10 -9 10 -9 0
-16 -4 -16 -10z"/>
<path d="M4300 3825 c-8 -9 -8 -15 -2 -15 12 0 26 19 19 26 -2 2 -10 -2 -17
-11z"/>
<path d="M850 3700 c0 -5 5 -10 10 -10 6 0 10 5 10 10 0 6 -4 10 -10 10 -5 0
-10 -4 -10 -10z"/>
<path d="M750 3490 c0 -5 7 -10 15 -10 8 0 15 5 15 10 0 6 -7 10 -15 10 -8 0
-15 -4 -15 -10z"/>
<path d="M782 3447 c-15 -14 -21 -16 -27 -6 -6 8 -4 10 5 4 9 -5 11 -4 6 3
-12 20 -23 13 -23 -13 0 -13 3 -22 8 -19 5 3 7 -5 5 -18 -7 -49 38 -87 94 -79
8 1 25 2 38 3 20 0 22 4 17 27 -3 16 0 34 9 46 20 26 20 39 1 31 -14 -5 -19 4
-16 29 0 6 -20 11 -49 11 -35 0 -55 -5 -68 -19z"/>
<path d="M962 3398 c-18 -18 -15 -25 11 -23 12 1 23 9 25 18 4 20 -18 23 -36
5z"/>
<path d="M1010 3369 c0 -5 5 -7 10 -4 6 3 10 8 10 11 0 2 -4 4 -10 4 -5 0 -10
-5 -10 -11z"/>
<path d="M1036 3354 c-9 -22 -8 -23 13 -17 12 3 17 11 14 19 -7 19 -19 18 -27
-2z"/>
<path d="M1090 3340 c0 -5 5 -10 11 -10 5 0 7 5 4 10 -3 6 -8 10 -11 10 -2 0
-4 -4 -4 -10z"/>
<path d="M930 3330 c0 -5 8 -10 18 -10 10 0 25 -9 35 -20 14 -17 21 -18 37
-10 24 13 25 23 6 39 -11 9 -20 9 -35 2 -13 -7 -22 -8 -26 -1 -8 13 -35 13
-35 0z"/>
<path d="M1056 3306 c6 -15 34 -30 42 -22 10 11 -9 36 -27 36 -14 0 -19 -5
-15 -14z"/>
<path d="M875 3290 c4 -6 11 -8 16 -5 14 9 11 15 -7 15 -8 0 -12 -5 -9 -10z"/>
<path d="M906 3259 c-24 -41 -15 -75 23 -84 17 -3 38 -2 48 3 21 12 22 12 72
12 42 0 55 15 45 54 -4 18 -11 22 -34 18 -28 -4 -48 -31 -36 -50 3 -5 -1 -9
-9 -9 -8 0 -15 7 -15 16 -1 20 -19 42 -48 59 -28 16 -25 17 -46 -19z"/>
<path d="M1239 3271 c-1 -3 -1 -9 0 -13 0 -5 -3 -8 -9 -8 -14 0 -12 -23 4 -46
15 -19 15 -19 29 1 9 11 13 23 11 26 -2 4 3 9 11 13 25 9 17 23 -15 28 -16 3
-31 2 -31 -1z"/>
<path d="M860 3260 c0 -5 7 -10 16 -10 8 0 12 5 9 10 -3 6 -10 10 -16 10 -5 0
-9 -4 -9 -10z"/>
<path d="M867 3174 c-8 -8 1 -24 14 -24 5 0 9 7 9 15 0 15 -12 20 -23 9z"/>
<path d="M924 3145 c-9 -22 5 -38 22 -24 18 15 18 25 -1 33 -9 3 -18 -1 -21
-9z"/>
<path d="M555 3079 c-4 -6 -5 -13 -2 -16 7 -7 27 6 27 18 0 12 -17 12 -25 -2z"/>
<path d="M524 3049 c-3 -5 1 -9 10 -9 8 0 16 -6 19 -12 3 -9 8 -10 15 -3 8 7
4 14 -13 22 -15 6 -27 7 -31 2z"/>
<path d="M733 3023 c-13 -2 -23 -9 -23 -15 0 -5 7 -7 16 -4 9 3 22 6 30 6 8 0
14 5 14 10 0 6 -3 9 -7 9 -5 -1 -18 -4 -30 -6z"/>
<path d="M563 3013 c-10 -4 -9 -8 2 -19 8 -9 19 -12 25 -9 6 3 13 -1 16 -9 3
-9 13 -16 22 -16 13 0 12 3 -4 18 -36 32 -49 39 -61 35z"/>
<path d="M509 2996 c-1 -3 -2 -9 -3 -13 -1 -5 -5 -13 -9 -20 -4 -6 -3 -14 3
-18 5 -3 11 -4 11 -1 1 3 2 9 3 14 1 4 5 12 9 19 4 6 3 14 -3 18 -5 3 -11 4
-11 1z"/>
<path d="M760 2989 c-13 -6 -34 -8 -46 -5 -24 6 -32 -6 -29 -44 3 -48 85 -39
85 10 0 10 7 20 15 24 15 5 21 27 8 25 -5 0 -19 -5 -33 -10z"/>
<path d="M850 2970 c0 -5 4 -10 9 -10 6 0 13 5 16 10 3 6 -1 10 -9 10 -9 0
-16 -4 -16 -10z"/>
<path d="M815 2950 c-3 -5 1 -10 9 -10 9 0 16 5 16 10 0 6 -4 10 -9 10 -6 0
-13 -4 -16 -10z"/>
<path d="M635 2930 c-3 -5 -2 -10 4 -10 5 0 13 5 16 10 3 6 2 10 -4 10 -5 0
-13 -4 -16 -10z"/>
<path d="M830 2920 c0 -5 5 -10 10 -10 6 0 10 5 10 10 0 6 -4 10 -10 10 -5 0
-10 -4 -10 -10z"/>
<path d="M590 2909 c0 -5 5 -7 10 -4 6 3 10 8 10 11 0 2 -4 4 -10 4 -5 0 -10
-5 -10 -11z"/>
<path d="M785 2907 c-21 -23 -25 -36 -16 -41 5 -4 16 7 24 24 16 30 11 39 -8
17z"/>
<path d="M640 2900 c-13 -9 -11 -13 10 -30 28 -22 42 -21 46 3 3 20 -7 22 -24
5 -9 -9 -12 -9 -13 3 -1 7 -1 17 0 22 1 9 -1 9 -19 -3z"/>
<path d="M725 2880 c3 -5 8 -10 11 -10 2 0 4 5 4 10 0 6 -5 10 -11 10 -5 0 -7
-4 -4 -10z"/>
<path d="M820 2874 c-11 -12 -10 -18 3 -32 15 -15 19 -15 32 -1 17 17 11 49
-10 49 -7 0 -18 -7 -25 -16z"/>
<path d="M617 2844 c-8 -8 1 -24 14 -24 5 0 9 7 9 15 0 15 -12 20 -23 9z"/>
<path d="M582 2817 c26 -21 8 -38 -29 -28 -38 11 -50 3 -23 -16 11 -8 20 -20
20 -27 0 -27 -26 -65 -50 -72 -14 -3 -20 -8 -13 -11 8 -3 5 -11 -8 -24 -24
-24 -24 -36 1 -49 16 -8 24 -6 41 11 20 20 20 21 2 42 -16 19 -16 20 -1 14 12
-4 21 0 28 13 10 19 12 19 37 3 25 -17 33 -14 35 14 0 5 9 14 19 21 24 17 24
28 0 35 -13 3 -18 13 -16 33 1 30 -18 53 -45 53 -12 0 -12 -2 2 -12z"/>
<path d="M679 2814 c-12 -16 -12 -17 3 -11 23 8 32 -7 13 -23 -8 -7 -15 -18
-15 -24 0 -6 7 -2 15 8 19 25 30 15 15 -13 -9 -18 -8 -21 7 -23 10 0 23 -2 30
-2 7 -1 18 -7 25 -14 18 -18 36 -15 43 8 3 11 11 20 17 20 6 0 4 8 -4 18 -9 9
-18 26 -20 37 -3 17 -11 20 -53 19 -28 0 -53 4 -56 8 -3 5 -12 1 -20 -8z"/>
<path d="M475 2810 c-3 -5 1 -10 9 -10 8 0 18 5 21 10 3 6 -1 10 -9 10 -8 0
-18 -4 -21 -10z"/>
<path d="M866 2787 c3 -8 13 -14 22 -13 25 4 21 20 -5 24 -17 3 -21 -1 -17
-11z"/>
<path d="M476 2763 c-11 -11 -6 -23 9 -23 8 0 15 4 15 9 0 13 -16 22 -24 14z"/>
<path d="M865 2720 c4 -6 11 -8 16 -5 14 9 11 15 -7 15 -8 0 -12 -5 -9 -10z"/>
<path d="M698 2693 c6 -2 18 -2 25 0 6 3 1 5 -13 5 -14 0 -19 -2 -12 -5z"/>
<path d="M917 2686 c-4 -9 4 -16 21 -19 35 -7 40 0 16 18 -24 18 -31 18 -37 1z"/>
<path d="M1360 2690 c0 -5 5 -10 10 -10 6 0 10 5 10 10 0 6 -4 10 -10 10 -5 0
-10 -4 -10 -10z"/>
<path d="M730 2665 c-8 -9 -8 -15 -2 -15 12 0 26 19 19 26 -2 2 -10 -2 -17
-11z"/>
<path d="M790 2670 c-9 -5 -9 -9 -1 -14 6 -4 11 -16 11 -27 0 -10 5 -19 10
-19 6 0 10 -7 10 -15 0 -13 3 -13 20 -3 11 7 18 18 16 24 -2 6 1 17 7 23 21
21 -45 49 -73 31z"/>
<path d="M1324 2662 c-19 -13 -10 -54 13 -63 25 -9 49 12 40 35 -8 19 -40 36
-53 28z"/>
<path d="M590 2639 c0 -6 -7 -9 -15 -5 -17 6 -21 -9 -5 -19 5 -3 20 3 32 14
18 18 19 21 5 21 -9 0 -17 -5 -17 -11z"/>
<path d="M670 2635 c-7 -9 -14 -36 -15 -60 0 -23 -7 -50 -14 -59 -8 -9 -11
-19 -8 -22 7 -7 32 15 38 35 4 11 8 10 22 -4 11 -10 15 -25 12 -36 -10 -31 12
-22 27 11 7 17 19 31 25 31 40 4 48 3 48 -8 0 -6 4 -15 9 -20 5 -5 7 1 3 15
-3 12 -1 22 5 22 5 0 7 4 3 10 -3 5 -11 7 -18 5 -23 -8 -50 22 -43 49 8 33 -7
41 -39 20 -24 -15 -25 -15 -33 6 -7 20 -9 20 -22 5z"/>
<path d="M895 2630 c-3 -5 1 -10 10 -10 9 0 13 5 10 10 -3 6 -8 10 -10 10 -2
0 -7 -4 -10 -10z"/>
<path d="M1030 2624 c0 -8 5 -12 10 -9 6 4 8 11 5 16 -9 14 -15 11 -15 -7z"/>
<path d="M1106 2632 c-3 -6 -1 -14 5 -17 15 -10 25 3 12 16 -7 7 -13 7 -17 1z"/>
<path d="M1236 2631 c-4 -5 -2 -12 3 -15 5 -4 12 -2 15 3 4 5 2 12 -3 15 -5 4
-12 2 -15 -3z"/>
<path d="M952 2602 c-15 -17 -22 -21 -18 -9 3 9 1 17 -4 17 -6 0 -10 -4 -10
-10 0 -5 -6 -10 -13 -10 -16 0 -55 -39 -41 -41 5 -1 17 -1 27 0 21 3 22 -7 2
-29 -9 -10 -13 -25 -9 -34 7 -17 24 -22 24 -6 0 16 27 12 34 -5 9 -25 36 -18
36 10 0 19 9 29 38 42 l37 16 -35 6 c-33 6 -35 8 -35 44 0 20 -2 37 -5 36 -3
0 -15 -12 -28 -27z"/>
<path d="M1167 2610 c-6 -24 18 -28 27 -4 8 22 8 24 -8 24 -7 0 -16 -9 -19
-20z"/>
<path d="M1270 2620 c0 -5 5 -10 10 -10 6 0 10 5 10 10 0 6 -4 10 -10 10 -5 0
-10 -4 -10 -10z"/>
<path d="M1010 2600 c0 -5 5 -10 11 -10 5 0 7 5 4 10 -3 6 -8 10 -11 10 -2 0
-4 -4 -4 -10z"/>
<path d="M1068 2599 c-5 -16 14 -59 26 -59 5 0 6 3 3 7 -4 3 2 13 13 20 16 11
24 12 35 3 9 -7 15 -8 20 0 3 5 0 10 -9 10 -8 0 -16 4 -18 10 -5 16 -65 24
-70 9z"/>
<path d="M625 2590 c-3 -5 -1 -10 4 -10 6 0 11 5 11 10 0 6 -2 10 -4 10 -3 0
-8 -4 -11 -10z"/>
<path d="M578 2558 c-2 -13 -9 -22 -16 -20 -6 1 -18 3 -24 5 -8 1 -13 -9 -13
-25 0 -14 -3 -30 -7 -34 -13 -13 -9 -24 9 -24 9 0 24 -7 34 -16 16 -14 20 -14
43 1 28 19 33 31 14 38 -7 2 -14 17 -14 33 -2 55 -4 64 -13 64 -5 0 -11 -10
-13 -22z"/>
<path d="M470 2538 c0 -7 4 -19 9 -26 6 -10 11 -10 21 3 12 14 11 18 -1 26
-20 12 -29 11 -29 -3z"/>
<path d="M1125 2540 c-3 -5 1 -10 9 -10 9 0 16 5 16 10 0 6 -4 10 -9 10 -6 0
-13 -4 -16 -10z"/>
<path d="M1097 2514 c-4 -4 1 -13 11 -20 14 -11 15 -15 3 -23 -8 -5 -24 -7
-37 -5 -39 7 -72 -12 -82 -48 -6 -20 -5 -38 0 -45 13 -16 0 -53 -18 -53 -8 0
-14 -4 -14 -8 0 -5 18 -9 39 -10 27 -1 41 3 45 14 3 8 11 12 17 9 5 -4 28 5
50 20 39 28 47 41 29 47 -12 4 -16 67 -5 93 4 11 5 17 0 13 -4 -4 -13 -1 -19
8 -6 8 -15 12 -19 8z"/>
<path d="M995 2501 c-3 -5 -1 -12 5 -16 5 -3 10 1 10 9 0 18 -6 21 -15 7z"/>
<path d="M1041 2494 c0 -11 3 -14 6 -6 3 7 2 16 -1 19 -3 4 -6 -2 -5 -13z"/>
<path d="M750 2479 c0 -5 5 -7 10 -4 6 3 10 8 10 11 0 2 -4 4 -10 4 -5 0 -10
-5 -10 -11z"/>
<path d="M816 2465 c-15 -8 -35 -15 -42 -15 -16 0 -19 -16 -4 -25 6 -3 10 -15
10 -26 0 -14 7 -19 26 -19 19 0 25 -4 20 -15 -3 -9 0 -15 9 -15 12 0 14 8 10
31 -5 25 -2 32 15 36 24 6 21 29 -3 25 -11 -2 -14 3 -10 18 6 24 6 24 -31 5z"/>
<path d="M470 2453 c0 -14 49 -32 56 -21 4 6 0 14 -7 19 -17 11 -49 12 -49 2z"/>
<path d="M660 2449 c0 -8 7 -24 15 -35 11 -15 14 -16 15 -3 0 8 -7 24 -15 35
-11 15 -14 16 -15 3z"/>
<path d="M696 2451 c-4 -5 4 -17 16 -25 25 -18 53 -21 43 -6 -4 6 -10 8 -15 5
-5 -3 -15 4 -23 16 -9 11 -18 16 -21 10z"/>
<path d="M910 2414 c0 -8 5 -12 10 -9 6 3 10 10 10 16 0 5 -4 9 -10 9 -5 0
-10 -7 -10 -16z"/>
<path d="M946 2421 c-4 -5 -2 -12 3 -15 5 -4 12 -2 15 3 4 5 2 12 -3 15 -5 4
-12 2 -15 -3z"/>
<path d="M587 2414 c-3 -3 -3 -12 0 -20 3 -8 -3 -21 -13 -29 -11 -8 -14 -14
-6 -15 6 0 21 9 32 20 11 11 16 20 10 20 -5 0 -7 7 -4 15 6 15 -7 21 -19 9z"/>
<path d="M510 2387 c0 -8 7 -18 16 -21 11 -4 14 -1 12 11 -4 21 -28 30 -28 10z"/>
<path d="M722 2362 c2 -8 11 -20 20 -26 14 -8 22 -7 35 6 21 21 14 30 -27 33
-23 2 -30 -1 -28 -13z"/>
<path d="M860 2356 c0 -33 20 -48 43 -31 26 19 14 55 -19 55 -19 0 -24 -5 -24
-24z"/>
<path d="M620 2350 c-11 -21 -4 -25 24 -14 9 3 16 12 16 20 0 21 -28 17 -40
-6z"/>
<path d="M670 2360 c0 -5 7 -7 15 -4 8 4 15 8 15 10 0 2 -7 4 -15 4 -8 0 -15
-4 -15 -10z"/>
<path d="M945 2360 c-3 -5 -2 -10 4 -10 5 0 13 5 16 10 3 6 2 10 -4 10 -5 0
-13 -4 -16 -10z"/>
<path d="M1153 2331 c0 -26 3 -29 19 -20 21 11 23 20 6 37 -19 19 -25 14 -25
-17z"/>
<path d="M517 2323 c-4 -3 -7 -11 -7 -17 0 -6 5 -5 12 2 6 6 9 14 7 17 -3 3
-9 2 -12 -2z"/>
<path d="M700 2314 c0 -8 5 -12 10 -9 6 4 8 11 5 16 -9 14 -15 11 -15 -7z"/>
<path d="M927 2323 c-4 -3 -7 -11 -7 -17 0 -6 5 -5 12 2 6 6 9 14 7 17 -3 3
-9 2 -12 -2z"/>
<path d="M565 2310 c3 -5 8 -10 11 -10 2 0 4 5 4 10 0 6 -5 10 -11 10 -5 0 -7
-4 -4 -10z"/>
<path d="M805 2310 c-3 -5 -2 -10 4 -10 5 0 13 5 16 10 3 6 2 10 -4 10 -5 0
-13 -4 -16 -10z"/>
<path d="M471 2303 c0 -5 4 -17 9 -28 8 -18 9 -17 9 8 1 15 -3 27 -9 27 -5 0
-10 -3 -9 -7z"/>
<path d="M737 2304 c-12 -13 -7 -24 8 -18 8 4 15 2 15 -4 0 -17 -24 -20 -51
-6 -35 17 -42 8 -22 -27 14 -23 14 -30 4 -43 -11 -13 -11 -17 2 -22 9 -3 20
-3 26 0 5 4 12 -3 16 -14 8 -26 17 -25 43 5 12 14 29 25 37 25 20 0 19 16 -1
24 -12 4 -14 14 -9 36 6 27 4 30 -17 30 -13 0 -29 5 -34 10 -6 6 -13 7 -17 4z"/>
<path d="M841 2301 c-8 -6 -9 -11 -3 -15 6 -3 14 -1 17 5 9 14 2 20 -14 10z"/>
<path d="M1055 2300 c4 -6 11 -8 16 -5 14 9 11 15 -7 15 -8 0 -12 -5 -9 -10z"/>
<path d="M1247 2304 c-4 -4 -21 -7 -38 -8 -18 -1 -34 -6 -36 -12 -6 -17 35
-24 48 -8 6 8 18 14 25 14 8 0 14 5 14 10 0 12 -4 13 -13 4z"/>
<path d="M617 2280 c5 -18 2 -20 -36 -15 -44 6 -46 4 -30 -27 8 -14 8 -23 0
-31 -18 -18 -13 -29 10 -22 12 4 19 3 16 -2 -8 -13 20 -46 33 -38 8 5 8 11 -1
21 -9 11 -9 14 1 14 6 0 10 8 7 18 -2 9 2 29 10 44 7 15 10 34 7 42 -9 23 -23
19 -17 -4z"/>
<path d="M1071 2281 c-11 -11 -23 -16 -26 -11 -8 13 -25 13 -25 1 0 -5 6 -16
14 -24 9 -8 11 -19 6 -27 -13 -20 -3 -30 31 -30 20 0 29 5 29 16 0 8 4 13 9 9
15 -9 24 14 11 30 -6 7 -10 21 -8 31 5 25 -18 28 -41 5z"/>
<path d="M865 2270 c-3 -5 -1 -10 4 -10 6 0 11 5 11 10 0 6 -2 10 -4 10 -3 0
-8 -4 -11 -10z"/>
<path d="M913 2273 c-20 -7 -16 -51 6 -58 39 -12 73 22 44 46 -17 15 -32 18
-50 12z"/>
<path d="M650 2230 c0 -5 5 -10 11 -10 5 0 7 5 4 10 -3 6 -8 10 -11 10 -2 0
-4 -4 -4 -10z"/>
<path d="M865 2229 c-9 -14 -2 -20 14 -10 8 6 9 11 3 15 -6 3 -14 1 -17 -5z"/>
<path d="M975 2219 c-11 -17 3 -23 20 -9 13 11 15 9 15 -14 0 -14 5 -26 10
-26 13 0 13 16 0 41 -12 21 -35 25 -45 8z"/>
<path d="M495 2200 c-10 -11 -15 -20 -11 -20 4 0 16 9 28 20 12 11 17 20 11
20 -5 0 -18 -9 -28 -20z"/>
<path d="M826 2185 c-11 -8 -17 -18 -13 -21 10 -11 37 4 37 21 0 18 0 18 -24
0z"/>
<path d="M917 2183 c-12 -12 -7 -22 8 -17 8 4 15 10 15 15 0 11 -14 12 -23 2z"/>
<path d="M540 2159 c0 -5 5 -7 10 -4 6 3 10 8 10 11 0 2 -4 4 -10 4 -5 0 -10
-5 -10 -11z"/>
<path d="M667 2163 c-4 -3 -7 -11 -7 -17 0 -6 5 -5 12 2 6 6 9 14 7 17 -3 3
-9 2 -12 -2z"/>
<path d="M990 2155 c0 -16 16 -20 24 -6 3 5 -1 11 -9 15 -9 3 -15 0 -15 -9z"/>
<path d="M915 2150 c-11 -18 14 -38 40 -32 14 2 25 9 25 14 0 6 -11 7 -27 3
-23 -5 -25 -4 -14 9 11 13 11 16 -2 16 -9 0 -19 -5 -22 -10z"/>
<path d="M855 2134 c-11 -8 -19 -22 -17 -30 2 -9 -2 -22 -9 -30 -8 -10 -8 -14
0 -14 6 0 11 4 11 9 0 5 8 7 18 4 10 -2 26 4 35 15 17 18 17 20 0 40 -16 20
-20 20 -38 6z"/>
<path d="M520 2130 c0 -5 -7 -10 -15 -10 -8 0 -15 -4 -15 -10 0 -14 23 -13 38
2 15 15 16 28 2 28 -5 0 -10 -4 -10 -10z"/>
<path d="M770 2114 c0 -8 5 -12 10 -9 6 4 8 11 5 16 -9 14 -15 11 -15 -7z"/>
<path d="M720 2112 c0 -5 -6 -9 -12 -9 -7 0 -22 -4 -32 -9 -15 -5 -17 -4 -11
6 5 8 3 11 -6 8 -8 -3 -13 -17 -12 -33 2 -19 -5 -33 -18 -43 -25 -17 -15 -36
11 -22 16 9 21 6 26 -15 9 -38 41 -31 35 8 0 4 8 7 18 7 28 0 36 18 17 39 -21
23 -20 47 2 60 16 10 16 10 0 11 -10 0 -18 -4 -18 -8z"/>
<path d="M603 2103 c-13 -5 -19 -33 -7 -33 7 0 34 27 34 34 0 7 -10 7 -27 -1z"/>
<path d="M775 2080 c-3 -5 -1 -10 4 -10 6 0 11 5 11 10 0 6 -2 10 -4 10 -3 0
-8 -4 -11 -10z"/>
<path d="M600 2045 c-11 -13 -10 -14 4 -9 9 3 16 10 16 15 0 13 -6 11 -20 -6z"/>
<path d="M850 2049 c0 -5 5 -7 10 -4 6 3 10 8 10 11 0 2 -4 4 -10 4 -5 0 -10
-5 -10 -11z"/>
<path d="M811 2041 c-8 -6 -9 -11 -3 -15 6 -3 14 -1 17 5 9 14 2 20 -14 10z"/>
<path d="M760 2010 c0 -5 5 -10 10 -10 6 0 10 5 10 10 0 6 -4 10 -10 10 -5 0
-10 -4 -10 -10z"/>
<path d="M555 2000 c-3 -5 -1 -10 4 -10 6 0 11 5 11 10 0 6 -2 10 -4 10 -3 0
-8 -4 -11 -10z"/>
<path d="M750 1980 c0 -13 20 -13 40 0 12 8 9 10 -12 10 -16 0 -28 -4 -28 -10z"/>
<path d="M706 1965 c-3 -9 -18 -15 -36 -15 -16 0 -30 -4 -30 -9 0 -11 67 -9
68 3 0 5 6 12 12 16 8 5 8 10 2 14 -5 3 -12 -1 -16 -9z"/>
<path d="M581 1956 c-15 -17 -11 -48 5 -53 17 -6 46 26 42 46 -4 21 -32 25
-47 7z"/>
<path d="M540 1935 c0 -8 2 -15 4 -15 2 0 6 7 10 15 3 8 1 15 -4 15 -6 0 -10
-7 -10 -15z"/>
<path d="M629 1874 c-23 -24 -24 -37 -4 -54 18 -15 55 -4 55 17 0 9 6 13 15 9
9 -3 15 0 15 8 0 8 -7 13 -16 12 -9 0 -19 4 -21 11 -3 7 3 9 16 6 12 -3 21 -1
21 5 0 18 -61 8 -81 -14z"/>
<path d="M585 1880 c4 -6 11 -8 16 -5 14 9 11 15 -7 15 -8 0 -12 -5 -9 -10z"/>
<path d="M570 1820 c0 -5 4 -10 9 -10 6 0 13 5 16 10 3 6 -1 10 -9 10 -9 0
-16 -4 -16 -10z"/>
<path d="M685 1809 c-9 -14 -2 -20 14 -10 8 6 9 11 3 15 -6 3 -14 1 -17 -5z"/>
<path d="M555 1790 c3 -5 8 -10 11 -10 2 0 4 5 4 10 0 6 -5 10 -11 10 -5 0 -7
-4 -4 -10z"/>
<path d="M1440 2890 c0 -5 4 -10 9 -10 6 0 13 5 16 10 3 6 -1 10 -9 10 -9 0
-16 -4 -16 -10z"/>
<path d="M4764 2133 c4 -4 16 -8 28 -10 28 -4 18 6 -12 12 -12 2 -20 1 -16 -2z"/>
<path d="M1265 1768 c-22 -13 -18 -30 5 -23 26 8 25 1 -2 -31 -34 -40 -75 -54
-106 -38 -13 7 -31 10 -38 7 -22 -8 1 -31 39 -38 18 -3 42 -11 54 -17 17 -8
29 -8 48 0 36 17 31 33 -7 26 -32 -6 -33 -6 -11 10 22 17 63 56 98 95 l19 22
-42 -2 c-23 -2 -48 -7 -57 -11z"/>
<path d="M440 1720 c0 -5 5 -10 11 -10 5 0 7 5 4 10 -3 6 -8 10 -11 10 -2 0
-4 -4 -4 -10z"/>
<path d="M470 1720 c0 -5 5 -10 10 -10 6 0 10 5 10 10 0 6 -4 10 -10 10 -5 0
-10 -4 -10 -10z"/>
<path d="M1730 3809 c-12 -8 -10 -13 12 -30 42 -31 158 -212 145 -225 -2 -3
-22 -1 -43 4 -43 10 -107 -3 -142 -29 -30 -22 -49 -81 -51 -167 -3 -82 7 -102
93 -185 66 -65 137 -100 151 -76 4 5 -14 18 -38 28 -32 14 -57 37 -95 87 -28
38 -49 70 -47 72 2 2 31 -5 64 -17 65 -22 117 -27 141 -11 20 12 8 21 -33 25
-19 2 -69 20 -111 40 l-76 36 0 49 c0 52 25 89 62 91 10 1 24 2 31 3 6 1 30
-2 52 -7 22 -5 46 -10 54 -11 14 -3 29 -29 30 -53 1 -8 -11 -13 -29 -13 -35 0
-79 -20 -100 -45 -12 -14 -11 -16 11 -12 13 2 31 7 39 10 42 17 90 6 91 -21 0
-9 2 -26 5 -37 4 -21 11 -77 13 -107 1 -26 26 -22 44 6 13 19 15 43 12 111 -2
48 -7 95 -10 105 -3 10 -8 29 -10 41 -10 49 -75 167 -121 219 -82 92 -128 130
-144 119z"/>
<path d="M3639 3448 c-20 -37 -49 -170 -54 -253 -4 -44 -9 -89 -12 -100 -4
-11 -8 -27 -9 -35 -1 -8 -6 -32 -10 -53 -6 -31 -4 -36 9 -32 13 6 31 71 41
155 2 14 10 59 19 100 9 41 18 91 21 111 7 46 16 69 27 69 15 0 79 -104 79
-128 0 -30 -32 -105 -89 -207 -82 -148 -131 -265 -131 -311 0 -24 28 -3 33 25
3 15 26 61 51 102 25 41 69 124 99 184 106 213 108 259 18 353 -45 47 -74 53
-92 20z"/>
<path d="M2340 3243 c-14 -9 -57 -46 -95 -82 -39 -36 -81 -74 -93 -83 -22 -18
-29 -38 -13 -38 5 0 14 7 21 15 7 8 16 15 20 15 14 0 4 -29 -18 -53 -12 -13
-22 -30 -22 -38 0 -8 16 3 36 24 28 31 35 45 32 68 -4 25 3 36 46 76 27 25 67
56 88 70 22 13 36 28 33 33 -8 13 -6 13 -35 -7z"/>
<path d="M2967 3233 c-13 -13 -7 -22 36 -51 51 -36 213 -199 259 -261 28 -39
33 -53 35 -115 1 -39 5 -109 8 -156 3 -47 6 -100 6 -118 0 -55 23 -31 29 29
l5 54 27 -56 c24 -51 48 -76 61 -63 5 6 -31 108 -78 222 -15 35 -24 66 -21 69
5 5 83 -72 199 -194 17 -18 35 -33 39 -33 16 0 7 17 -23 46 -17 16 -60 74 -96
129 -37 55 -78 118 -92 139 -39 60 -184 200 -299 291 -14 11 -38 32 -54 48
-32 30 -32 30 -41 20z"/>
<path d="M3841 3007 c-7 -19 -14 -51 -16 -73 -11 -95 -16 -128 -20 -134 -2 -4
-7 -21 -10 -39 -3 -17 -11 -58 -18 -89 -23 -99 -4 -116 86 -82 45 17 62 30 87
68 36 55 47 89 32 104 -8 8 -14 5 -21 -13 -11 -28 -40 -60 -94 -107 -39 -34
-62 -34 -52 -2 3 11 8 41 10 67 2 26 8 75 14 108 6 33 13 78 16 100 4 22 10
55 15 74 15 58 -11 73 -29 18z"/>
<path d="M2622 2749 c-13 -5 -33 -11 -45 -14 -12 -2 -38 -8 -57 -13 -20 -5
-44 -7 -55 -5 -51 9 -79 5 -91 -12 -18 -25 -11 -29 24 -17 16 5 35 6 43 2 8
-4 48 1 89 11 101 26 123 29 136 18 7 -6 32 -12 55 -14 24 -2 46 -4 48 -4 2
-1 -1 -7 -7 -14 -20 -24 1 -38 32 -22 26 14 28 14 22 -3 -4 -9 -17 -32 -29
-49 -24 -35 -50 -41 -82 -19 -22 15 -78 34 -122 42 -15 3 -46 9 -67 14 -22 5
-45 6 -50 2 -6 -4 -15 -7 -20 -7 -5 0 -11 -5 -13 -12 -3 -8 6 -11 28 -8 52 6
223 -32 239 -54 13 -19 72 -52 84 -48 14 6 76 145 76 172 0 21 -27 30 -45 15
-12 -10 -15 -9 -15 4 0 18 -5 19 -68 16 -30 -1 -44 3 -48 14 -7 18 -27 19 -62
5z"/>
<path d="M2420 2563 c-80 -24 -135 -80 -147 -151 -4 -22 21 -39 72 -48 11 -2
38 -8 59 -13 99 -24 229 13 273 78 13 19 23 37 23 41 0 11 -112 78 -140 84
-37 9 -123 14 -140 9z m220 -97 c14 -18 3 -39 -32 -57 -16 -9 -18 -6 -16 40 3
41 6 48 19 41 9 -5 21 -16 29 -24z m-212 -14 c2 -7 -3 -12 -12 -12 -9 0 -16 7
-16 16 0 17 22 14 28 -4z m-78 -22 c0 -13 -7 -20 -20 -20 -18 0 -19 2 -8 20 7
11 16 20 20 20 5 0 8 -9 8 -20z"/>
<path d="M3360 2461 c0 -20 148 -65 177 -54 21 8 4 23 -27 23 -17 0 -53 9 -82
20 -59 22 -68 24 -68 11z"/>
<path d="M3330 2380 c0 -6 6 -13 14 -16 21 -8 224 -11 237 -3 19 12 -3 15
-101 17 -52 1 -107 5 -122 8 -17 3 -28 1 -28 -6z"/>
<path d="M3718 1963 c-10 -2 -18 -11 -18 -20 0 -9 6 -13 15 -9 8 3 15 3 15 0
0 -2 -11 -9 -25 -14 -25 -10 -35 -30 -13 -30 6 0 32 12 57 27 25 15 48 26 51
24 2 -1 6 2 8 8 2 6 -7 10 -20 10 -13 -1 -30 1 -38 3 -8 3 -23 4 -32 1z"/>
<path d="M3639 1827 c-14 -7 -24 -18 -22 -24 3 -7 -1 -13 -8 -13 -25 0 -140
-62 -136 -74 5 -14 37 -9 57 10 9 7 46 25 83 39 73 27 117 52 117 66 0 13 -60
10 -91 -4z"/>
<path d="M3180 1820 c0 -5 -7 -10 -17 -10 -32 0 -7 -9 42 -15 28 -4 58 -9 67
-11 13 -4 16 -1 12 9 -3 8 -22 19 -43 26 -47 14 -61 14 -61 1z"/>
<path d="M2920 1761 c-18 -12 -17 -12 47 -45 80 -40 78 -49 -8 -43 -75 6 -110
13 -209 41 -54 15 -90 14 -90 -4 0 -14 60 -56 108 -76 23 -10 42 -23 42 -27 0
-5 -8 -6 -17 -2 -10 4 -47 14 -83 21 -36 7 -76 16 -90 19 -14 3 -36 8 -49 11
-13 3 -31 8 -40 13 -25 12 -54 7 -59 -9 -3 -8 -1 -12 3 -8 5 4 13 4 19 -1 6
-5 31 -12 56 -15 25 -3 56 -8 70 -11 46 -9 85 -17 105 -20 11 -1 41 -9 67 -16
90 -25 77 14 -21 66 -74 39 -93 60 -41 45 17 -5 33 -9 35 -9 3 -1 6 -1 8 -2 5
-2 35 -8 72 -16 59 -12 198 -10 202 3 2 6 -22 25 -54 43 l-58 32 60 -5 c58 -6
78 -9 140 -22 40 -9 118 -14 127 -8 5 3 2 12 -6 20 -17 17 -30 19 -20 3 7 -13
-81 -7 -176 11 -97 18 -125 21 -140 11z"/>
<path d="M3586 1711 c-4 -5 -39 -22 -79 -37 -94 -36 -196 -84 -236 -113 -17
-13 -37 -24 -44 -25 -41 -8 -87 -46 -56 -46 18 0 223 90 261 116 21 13 40 24
42 24 3 0 29 11 58 25 55 26 88 48 88 59 0 9 -28 7 -34 -3z"/>
<path d="M1515 1660 c3 -5 10 -10 16 -10 5 0 9 5 9 10 0 6 -7 10 -16 10 -8 0
-12 -4 -9 -10z"/>
<path d="M1455 1631 c-6 -11 9 -23 19 -14 9 9 7 23 -3 23 -6 0 -12 -4 -16 -9z"/>
<path d="M1565 1609 c-10 -15 3 -25 16 -12 7 7 7 13 1 17 -6 3 -14 1 -17 -5z"/>
<path d="M1430 1580 c0 -5 5 -10 10 -10 6 0 10 5 10 10 0 6 -4 10 -10 10 -5 0
-10 -4 -10 -10z"/>
<path d="M1505 1570 c3 -5 10 -10 16 -10 5 0 9 5 9 10 0 6 -7 10 -16 10 -8 0
-12 -4 -9 -10z"/>
<path d="M1395 1540 c-3 -5 1 -10 9 -10 8 0 18 5 21 10 3 6 -1 10 -9 10 -8 0
-18 -4 -21 -10z"/>
<path d="M1510 1520 c0 -5 7 -10 16 -10 8 0 12 5 9 10 -3 6 -10 10 -16 10 -5
0 -9 -4 -9 -10z"/>
<path d="M3305 1520 c4 -6 11 -8 16 -5 14 9 11 15 -7 15 -8 0 -12 -5 -9 -10z"/>
<path d="M1455 1509 c-9 -14 -2 -20 14 -10 8 6 9 11 3 15 -6 3 -14 1 -17 -5z"/>
<path d="M1960 924 c0 -6 10 -19 21 -30 12 -10 25 -28 28 -38 6 -16 9 -17 14
-4 3 10 -7 28 -29 49 -19 18 -34 28 -34 23z"/>
</g>
</svg>
